<svg xmlns="http://www.w3.org/2000/svg" viewBox="0 0 282.73 388.18"><defs><style>.cls-1{fill:#656565;}</style></defs><g id="Layer_2" data-name="Layer 2"><g id="Layer_1-2" data-name="Layer 1"><path class="cls-1" d="M61.77,123.67c-6.9-8.25-11.37-18.6-15.61-25.59A22.81,22.81,0,0,0,34.7,88.56a10.57,10.57,0,0,0-3.85-.73,10.39,10.39,0,0,0-2.66.35h0c-1.5-.3-2.92-.51-4.19-.67-2.33-.31-4.53-.47-6.9-.64l-.15,0-2.79-.21a8.58,8.58,0,0,0-1.52,0,9.33,9.33,0,0,0-7.19,4.72L5.09,92c-.88,1.52-1.81,3.13-2.71,4.73-4.18,7.35-1.84,14-.58,17.55,4.54,12.84,10.86,17.93,16.43,20.5h0a28.73,28.73,0,0,0,12.37,15.39c4.81,3,7.64,8.26,10.91,14.39l.46.87A86.5,86.5,0,0,0,54.25,183v0c-2.74,1.86-5.51,3.76-8.25,5.67C36,195.72,25.61,203,17.08,213c-2.57,3-5.93,7.8-7.3,13.27A17.74,17.74,0,0,0,12.42,241a21.26,21.26,0,0,0,15.31,8.7,43.83,43.83,0,0,0,4.7.26,40.54,40.54,0,0,0,18.7-4.57h0a10.41,10.41,0,0,0,5.26-1.46c.25-.15.52-.32.8-.52l.1-.07c8.72-6,11.37-15.57,12.23-18.7.55-2,2.41-4,5-5.45a13.38,13.38,0,0,1,6.44-1.76,10.09,10.09,0,0,1,2.42.29l.23.18c10.73,8.65,23,16.6,38.46,25,1.72.93,3.7,2,5.56,3.11,3.42,2,3.66,3.6,3.61,5.36l-.06,2.48c-.07,3.08-.14,6.26-.42,9.3,0,.29,0,.57,0,.85a10.42,10.42,0,0,0,1,4.56h0c-.73,17.43,5,33.59,16.91,48.08,7.53,9.12,7.35,19.14-.53,28.19-1.4,1.6-2.79,3.22-4.18,4.84l-.15.17-4,4.59c-6.41,7.36-8.23,12.29-8.47,22.95a9,9,0,0,0,8.21,9.16c2.94.26,5.42.39,7.74.41h0a10.3,10.3,0,0,0,4.92,1.24c.34,0,.68,0,.91,0a41.89,41.89,0,0,0,17.71-5.36c8.77-5.06,12.71-13.26,15.42-20.61,1.19-3.23,2.21-6.47,3.2-9.62,1.27-4,2.58-8.18,4.15-11.9,2-4.73,4.6-9.57,7.1-14.25,1.16-2.17,2.36-4.41,3.51-6.65l1.43-2.76a10.39,10.39,0,0,0-1.74-12l-1.85-1.85c-1-.95-1.87-1.85-2.56-2.68l-.39-.5c1.84-2.05,3.91-4,6.11-6.07h0l2.56,2.92a10.33,10.33,0,0,0,4.44,3h0c1.69,2,3,3.53,4.23,5.06,7.83,9.65,8,16.05.67,26.31-1,1.34-1.94,2.66-2.92,4l-.34.45c-6.25,8.39-6.78,11-4.31,21.6a9,9,0,0,0,8.15,6.95c.82.05,1.66.08,2.49.08h.87a10.41,10.41,0,0,0,4.41,1,11.11,11.11,0,0,0,1.73-.14c16.13-2.72,31.12-14.74,36.45-29.23,3.64-9.88.66-19.26-.32-22.35-1.87-5.85-3.35-12.16-1.59-18.72,2.73-10.15-.58-20-9.08-27.11a25.9,25.9,0,0,1-6.57-9.11s0,0,0,0c8.14-3.94,13.32-11.09,14.74-20.56a4.52,4.52,0,0,0,.07-.46,90.27,90.27,0,0,0-4.35-43.57c-2.08-5.84-4.36-11.64-6.56-17.24-2.9-7.37-5.9-15-8.34-22.52a198.82,198.82,0,0,1-5.37-22.43l0-.1q-.65-3.28-1.32-6.54a20.17,20.17,0,0,1,.17-4.16l0-.47c.46-4.81,2.07-7.59,9-7.59h.49c8.45.17,12.59,3,15.28,10.6a26.18,26.18,0,0,0,3.88,7.48,10.73,10.73,0,0,0,4.88,3.69,10.44,10.44,0,0,0,14-9.34c0-.16,0-.31,0-.48a24.08,24.08,0,0,0,.06-3c-.08-1.35-.13-2.71-.18-4.08v-.14a112.29,112.29,0,0,0-.83-11.41c-1-7.19-3.6-12.83-7.75-16.83h0a10.64,10.64,0,0,0-.17-1.86c0-.27-.09-.53-.14-.8a10.47,10.47,0,0,0-6.86-8.2c-5.82-2.06-10.82-3.43-16.3-3.43a29,29,0,0,0-5.3.48l-.24-.19-.78-.57A10.41,10.41,0,0,0,236,73a10.85,10.85,0,0,0-6.45,4.09c-.35.45-.73.89-1.13,1.37a38.32,38.32,0,0,0-4.17,5.7c-10.73,18.79-16,38.25-15.53,57.85.17,8,2.77,15.65,5.06,22.37.47,1.36.93,2.72,1.37,4.07l1.8,5.5c4.41,13.44,9,27.33,11.17,41.19.29,1.82.57,3.6.73,5.3h0a10.49,10.49,0,0,0-4.8-4h0a183.79,183.79,0,0,0-16.69-17.18l-.13-.13-2.9-2.74c-15.24-14.5-22.49-29-22.84-45.68-.24-11.74,2.35-23.86,4.86-35.59.38-1.77.78-3.55,1.21-5.36,0,0,0,0,0,0a8.93,8.93,0,0,0,5.92-5.32,44.43,44.43,0,0,0,2.64-23.06s0,0,0,0a8.9,8.9,0,0,0,1.55-1.13l.85-.77a9,9,0,0,0,1.3-11.89c-1.44-2-2.87-4.06-4.34-6.16-3.19-4.55-6.49-9.26-10-13.82-2.49-3.28-5.1-6.43-7.62-9.5-2.68-3.24-5.45-6.59-7.94-9.94C161.32,16.5,150.39,9.8,137.42,8.21a0,0,0,0,1,0,0,10.07,10.07,0,0,0-.47-1.57A10.33,10.33,0,0,0,127.26,0H127a58.1,58.1,0,0,0-23.82,5.58h0a10.43,10.43,0,0,0-10.63-.52c-7.06,3.75-15.85,8.42-19.7,19.14l-.29.75a20.59,20.59,0,0,0-1.69,7.43c0,.19-.34.81-2.58,2.75l-1.83,1.59c-5.29,4.59-10.77,9.34-16.29,13.56C43.49,55.35,38.35,59.8,37.64,67s3.5,12.56,8.63,18.37c2.93,3.32,7.07,7.22,13.44,8.52l.53,1.19c-4.66,7.82-4.1,17,1.86,25.71a12.3,12.3,0,0,0,4.58,3.92s0,0,0,0c-.35.62-.68,1.26-1,1.89C65.16,127.53,61.77,123.67,61.77,123.67ZM29,94.93c1.83-.15,3.51-.72,5.54.09,2.23.88,4.13,4.26,5.49,6.06,3,4,5.82,8.07,8.6,12.19q4,5.87,7.79,11.81c3.28,5.11,8.15,8.61,12.92,12.21,1.82-8,6-13.92,11-19-.86.11-1.74.24-2.59.37-1.5.24-3,.47-4.58.59l-.4,0a6.4,6.4,0,0,1-5-2.44c-5.55-8.09-4.86-16,1.91-22.42l-.12-.32a4,4,0,0,1-.21-.95,3.58,3.58,0,0,1-1.28-.67l-2-1.68c-1.16-1-2.33-2-3.5-2.92l-.52-.46-.21-.19c-4.76-.7-7.91-3.63-10.38-6.43-4.89-5.53-7.3-9.07-6.91-13.06s3.46-7.06,9.76-11.87C60.07,51.49,65.63,46.67,71,42l1.82-1.59c2.72-2.34,5-4.56,5-8a13.81,13.81,0,0,1,1.21-5c.12-.3.24-.59.34-.88,3-8.21,9.79-11.84,16.41-15.35a3.33,3.33,0,0,1,1.6-.4,3.42,3.42,0,0,1,2.13.74,3.49,3.49,0,0,1,1.26,3.27A50.54,50.54,0,0,1,127.15,7h.11a3.4,3.4,0,0,1,3.33,2.75,3.53,3.53,0,0,1-1.23,3.34l-.43.37.88,0a3.47,3.47,0,0,1,2.78,1.43c12.75.38,23.43,6.25,31.74,17.47,2.59,3.49,5.43,6.92,8.17,10.23,2.48,3,5,6.11,7.45,9.28,3.39,4.46,6.66,9.11,9.81,13.62,1.44,2.05,2.89,4.11,4.35,6.16a2,2,0,0,1-.29,2.66l-.85.77a2,2,0,0,1-1.34.52,2,2,0,0,1-1.32-.49c-1.2-1-2.4-2.09-3.63-3.12,3,9.31,4.54,19.25.33,29.79a2.1,2.1,0,0,1-1.89,1.35,2,2,0,0,1-1.72-1c-.29-.49-.58-1-.87-1.47-.1.41-.2.82-.29,1.22-1,4.09-1.93,7.95-2.75,11.81-2.6,12.15-5.28,24.64-5,37.2.39,18.65,8.33,34.73,25,50.6l3.06,2.89c6,5.63,12.14,11.45,17.31,18.06l1.32.44a3.39,3.39,0,0,1,1.7,1.23,66.43,66.43,0,0,1,5.81,9.63,4.05,4.05,0,0,0,1.26.2,5.09,5.09,0,0,0,4.52-2.73l.22-.53c2.17-5.3,1.26-11.07.37-16.65-2.28-14.41-6.93-28.57-11.43-42.27-.6-1.84-1.2-3.66-1.79-5.49-.45-1.38-.93-2.77-1.4-4.16-2.24-6.54-4.54-13.3-4.69-20.26-.39-18.31,4.52-36.55,14.61-54.23a32.26,32.26,0,0,1,3.45-4.67c.47-.56.95-1.13,1.39-1.69A3.6,3.6,0,0,1,237,79.93a3.45,3.45,0,0,1,3,.52l.75.56a3.43,3.43,0,0,1,1.37,2.74,21.08,21.08,0,0,1,8.34-1.66c4.49,0,8.84,1.22,14,3a3.51,3.51,0,0,1,2.27,2.73c0,.32.11.64.16,1A3.45,3.45,0,0,1,265.78,92c5.05,2.8,7.94,7.75,9,15.19a106.28,106.28,0,0,1,.77,10.7v.16c0,1.4.1,2.8.18,4.19a17,17,0,0,1-.05,2.07c0,.21,0,.41,0,.61a3.39,3.39,0,0,1-.89,2.24,3.49,3.49,0,0,1-3.94.8,3.26,3.26,0,0,1-1.25-1,19.36,19.36,0,0,1-3.08-5.86c-3.66-10.31-10.36-15-21.72-15.24h-.63c-9.69,0-15,4.69-15.92,13.93l0,.45a22,22,0,0,0-.06,6.26q.68,3.24,1.32,6.49l0,.1A207.62,207.62,0,0,0,235,156.31c2.51,7.72,5.54,15.45,8.48,22.92,2.19,5.58,4.45,11.3,6.48,17a83.43,83.43,0,0,1,4,40.33,2.63,2.63,0,0,1,0,.28c-1.25,8.38-6.18,14.16-14.26,16.66-1,.31-1.95.59-2.92.88,2.81,7.14,5.65,13.81,11.43,18.62,6.4,5.33,8.82,12.4,6.8,19.9-2.24,8.33-.41,16.13,1.68,22.67,1.38,4.37,2.94,11,.42,17.8-4.5,12.25-17.27,22.43-31.05,24.74a3.39,3.39,0,0,1-3.07-1c-.94.08-1.87.12-2.77.12-.67,0-1.33,0-2-.07a2,2,0,0,1-1.85-1.56c-2-8.53-1.87-9.13,3.12-15.81l.33-.46c1-1.36,2-2.71,3-4.09,9.19-12.88,8.92-22.64-.94-34.79-1.87-2.3-3.77-4.53-6-7.09a2.9,2.9,0,0,1-.51,0,3.4,3.4,0,0,1-2.35-1.17l-1.79-2.05c-1.48-1.69-3-3.38-4.42-5.08-.33-.39-.68-.77-1.06-1.17l-2.2,2a128.59,128.59,0,0,0-9.79,9.49c-2.83,3.17-2.74,5.84.32,9.53a42.18,42.18,0,0,0,3,3.19c.58.58,1.16,1.15,1.73,1.74a3.39,3.39,0,0,1,.57,3.94l-1.46,2.8c-1.12,2.19-2.3,4.4-3.44,6.53-2.58,4.82-5.24,9.8-7.37,14.82-1.7,4-3.07,8.35-4.38,12.53-1,3.06-2,6.22-3.1,9.3-2.39,6.49-5.54,13-12.35,17a35.16,35.16,0,0,1-14.82,4.45h-.3a3.44,3.44,0,0,1-2.65-1.26c-.57,0-1.14,0-1.73,0-2.26,0-4.7-.13-7.66-.39a2,2,0,0,1-1.84-2.06c.2-9,1.46-12.42,6.75-18.48,1.39-1.6,2.76-3.2,4.14-4.8s2.77-3.21,4.16-4.8c10.09-11.6,10.33-25.52.65-37.25-11.34-13.73-16.45-29.07-15.18-45.6a3.42,3.42,0,0,1-1.18-2.59,2.64,2.64,0,0,1,0-.28c.29-3.2.37-6.51.44-9.71l.06-2.47c.13-5-2.11-8.67-7.07-11.57-1.94-1.14-4-2.26-5.76-3.22-15.13-8.22-27-15.94-37.4-24.32A7.49,7.49,0,0,0,85.53,211a16.3,16.3,0,0,0-4.61-.64A20.39,20.39,0,0,0,71.07,213c-4.2,2.35-7.22,5.88-8.28,9.69-1.22,4.39-3.52,10.7-9.47,14.82l-.1.06c-.13.09-.26.18-.4.26a3.36,3.36,0,0,1-1.75.48,3.54,3.54,0,0,1-1.28-.24,34.1,34.1,0,0,1-17.36,4.81,35,35,0,0,1-3.94-.22A14.31,14.31,0,0,1,18.17,237a10.86,10.86,0,0,1-1.6-8.95c1-4.17,3.76-8,5.85-10.45,8-9.4,17.93-16.37,27.58-23.12,3.94-2.75,8-5.49,11.9-8.15l.42-5a77.1,77.1,0,0,1-14.17-19.17l-.46-.86c-3.59-6.73-7-13.09-13.4-17a21.57,21.57,0,0,1-9.71-12.59,5.19,5.19,0,0,0-1.29-2.35c-8.81-3.16-12.36-10.2-14.89-17.34C7,108,6.06,104.4,8.46,100.17,9.69,98,10.9,94.51,13.3,93.45a10.11,10.11,0,0,1,4.44-.63,20.56,20.56,0,0,1,5.11.75c1.34.39,2.62,1,4,1.25A7,7,0,0,0,29,94.93Z"/><path class="cls-1" d="M246.17,322c.19,1.17.34,2.37.46,3.59A18.43,18.43,0,0,0,246.17,322Z"/><path class="cls-1" d="M80.45,100.56A8.35,8.35,0,0,1,79,102.05c-2.42,1.91-3.25,3.29-3,4.9,1.07-.17,2.17-.33,3.28-.46,2.36-.27,2.43-.55,2.79-1.91A8.47,8.47,0,0,1,86,99.47a15.09,15.09,0,0,1-1.46.41C83.11,100.18,81.77,100.4,80.45,100.56Z"/><path class="cls-1" d="M58.46,133.07c-7.33-8.75-16.29-22.61-20.72-29.93a12.38,12.38,0,0,0-3.86-4,2,2,0,0,0-3.06,2.08c5.4,26.07,22,51.77,49.27,76.36,1.88,1.7,7.6,6.85,5.39,11.52a8.88,8.88,0,0,1-2.7,3c-3.89,3-8.55,5-13.1,6.9-2.09.88-4.26,1.79-6.34,2.81-5.84,2.84-13.17,7.89-14.85,15.74-1,4.45,0,8.74,1.09,13.3.16.67.32,1.36.47,2a2,2,0,0,0,1.33,1.47,2,2,0,0,0,1.94-.4c3.08-2.7,5.23-6.51,6.74-12,1.26-4.53,4.77-8.68,9.64-11.4a23.08,23.08,0,0,1,11.22-3,19.3,19.3,0,0,1,5.4.75,10.24,10.24,0,0,1,3.42,1.9c10.25,8.26,22,15.9,37,24,1.79,1,3.85,2.09,5.84,3.26,5.86,3.43,8.63,8,8.47,14.09l-.06,2.54c-.08,3-.15,6.11-.4,9.14a2,2,0,0,0,.59,1.59,133,133,0,0,1,24.33,32.72c5,9.54,12.15,27.59,3.42,41.25-.55.86-1.17,1.71-1.8,2.57a18.91,18.91,0,0,0-4.61,13.7c-.06,1.44-.13,2.92-.32,4.33-.73,5.28-3.14,10.06-7.59,15a2,2,0,0,0-.25,2.32,2,2,0,0,0,1.74,1,1.58,1.58,0,0,0,.38,0,30.42,30.42,0,0,0,9.47-3.49c6-3.49,8.9-9.51,11.1-15.49,1.12-3,2.11-6.16,3.07-9.21,1.33-4.24,2.72-8.62,4.47-12.75,2.17-5.14,4.86-10.17,7.48-15.06,1.13-2.12,2.3-4.31,3.42-6.48.25-.5,1-1.91,1-1.91a2,2,0,0,0-.36-2.33l-.93-.93a45,45,0,0,1-3.23-3.4c-4-4.78-4-9-.25-13.23a132.36,132.36,0,0,1,10-9.71c1.4-1.27,2.84-2.57,4.27-3.91.38.43,1.17,1.29,1.17,1.29.68.74,1.28,1.39,1.85,2.06l4.27,4.91,1.33,1.51a2,2,0,0,0,1.51.69,2.06,2.06,0,0,0,.59-.09L227.23,287c.55,7,3,13.66,5.3,20.14l.06.17c.66,1.84,1.35,3.75,2,5.62,2.36,7.06,5.1,17.5,1.55,26.62-1.8,4.64-5.07,8.52-7.71,11.38a2,2,0,0,0,1.47,3.36,1.8,1.8,0,0,0,.6-.1c11-3.46,20.38-12,24-21.75,1.71-4.65,1.56-9.57-.47-16-2.21-6.93-4.14-15.24-1.71-24.27,1.72-6.37-.37-12.4-5.88-17-6.7-5.58-9.79-13.47-12.78-21.1l-.05-.13a7.42,7.42,0,0,1-.36-1.26s0-.14,0-.26l1.61-.45c1.31-.37,2.68-.75,4-1.17,7.21-2.24,11.75-8.59,13.12-18.36,1.25-8.86-.31-18.29-1.36-23.12-2.05-9.51-5.71-18.63-9.26-27.44-1.14-2.83-2.31-5.76-3.41-8.65a257.72,257.72,0,0,1-11.31-38.37c-1.44-6.82-2.74-14.65.22-21.23s10.43-11.11,18.53-11.11a20.3,20.3,0,0,1,3.23.26c8.37,1.35,16.06,7.54,20.09,16.15a2,2,0,0,0,1.81,1.15h.16a2,2,0,0,0,1.76-1.45,21.47,21.47,0,0,0-17.79-27.24,11.61,11.61,0,0,1,3.61-.58,10.13,10.13,0,0,1,1.36.09h.25a2,2,0,0,0,.87-3.8,21.77,21.77,0,0,0-9.36-2.08,22.75,22.75,0,0,0-13.18,4.18,2.89,2.89,0,0,1,.11-1.34,2,2,0,0,0-1-2.46,2,2,0,0,0-.86-.19,2,2,0,0,0-1.7,1c-10.58,17.19-15.92,33.88-15.86,49.63.06,15.14,5.09,29.71,10,43.79,4.93,14.25,10,29,9.71,44-.09,4.07-.61,8.62-3.8,11.57a6.21,6.21,0,0,1-4.12,1.72,6,6,0,0,1-.73-.05c-2.58-.38-4-2.54-5.61-5a36.06,36.06,0,0,0-2.16-3c-5.68-6.89-14.6-7.41-23.23-7.92-6.47-.38-13.16-.78-18.24-3.89-5.57-3.41-9-10.09-11.35-15.52a93.47,93.47,0,0,1-5.47-17.33c-.39-1.83-.81-3.65-1.24-5.47-1-4.1-1.93-8.34-2.53-12.54-.29-2-.41-4-.53-6.1-.07-1.19-.14-2.38-.24-3.56-.94-11.11-10.34-19.45-17.21-25.55-1.19-1.05-2.43-2.07-3.62-3.06a66.51,66.51,0,0,1-6.77-6.15c-4.09-4.44-7.16-10.16-10.14-15.69A25.74,25.74,0,0,1,118.35,98c-.58-3.69.46-7.52,1.67-11.12a96.87,96.87,0,0,1,12.1-24.2c.7-1,1.42-2,2.14-3,3.26-4.51,6.64-9.18,8.24-15a27.88,27.88,0,0,0-2.58-20.82c-3.6-6.13-11-6.69-16.94-7.14l-1.2-.09.55-.61a30.83,30.83,0,0,1,2.15-2.26,2,2,0,0,0-1.2-3.6h-.11C112,10.79,102.4,16.57,96,21.78l1.14-4.2a2,2,0,0,0-1.94-2.52,1.94,1.94,0,0,0-1,.25C89.31,18,84.33,21.19,82,27.56c-.11.31-.23.61-.36,1a11.6,11.6,0,0,0-1,4c0,4.57-3,7.48-6,10.07l-1.81,1.57c-5.42,4.7-11,9.56-16.79,14C50.57,62.3,47.71,65,47.42,68s1.87,6,6.22,10.92c2.32,2.63,5,5.13,9.14,5.56a2.93,2.93,0,0,1,1.18.79l.47.41L67,87.78A2,2,0,0,0,70.24,86c-.3-2.59-.17-3,4.21-6l.39-.25a11.73,11.73,0,0,0,2.94-3.43c.34-.52.72-1.09,1.15-1.67.77,1,1.55,1.94,2.31,2.89,2.11,2.62,4.1,5.11,5.86,7.75a2.25,2.25,0,0,1,.06,2.09,6.71,6.71,0,0,1-4.64,3.65,52,52,0,0,1-6.69.9l-1.23.11a2,2,0,0,0-1.67,2.7l.16.43c-7,5.67-8,12.56-3,19.94l.16.2a3.71,3.71,0,0,0,2.48,1H73c1.47-.11,2.92-.34,4.32-.55,1-.16,2-.32,3-.43,5.5-.63,8.78-3.12,10.25-7.83l3.84,2.2c-.69.57-1.36,1.15-2.06,1.69-25.31,19.63-20,33.78-20,33.78C63.15,137.74,58.46,133.07,58.46,133.07Zm22-79.67c-1,1.47-2.79,1.83-4.36,2.05H75.9a1.58,1.58,0,0,1-1.12-.52l-.7-.78a1.42,1.42,0,0,1,.11-2l4.42-4.07A1.4,1.4,0,0,1,80,47.81a1.42,1.42,0,0,1,1,1A5.65,5.65,0,0,1,80.43,53.4ZM194.69,265.18a41.16,41.16,0,0,1-8.94,1.14,39.05,39.05,0,0,1-9.22-.87,30.94,30.94,0,0,1-9.44-3.74,26.94,26.94,0,0,1-8.27-7.83,26.4,26.4,0,0,1-2.72-5.12,34.55,34.55,0,0,1-1.54-4.89,71.22,71.22,0,0,1-1.31-8.1,25.53,25.53,0,0,0-1.26-6,18,18,0,0,0-3.07-5.31,22.74,22.74,0,0,0-4.69-4.27,23,23,0,0,0-5.73-2.88c-1-.37-2.36-.65-4-1.17a20.82,20.82,0,0,1-2.74-1,12.93,12.93,0,0,1-3-1.92,12,12,0,0,1-2.39-2.9,12.77,12.77,0,0,1-1.26-3.16,20.48,20.48,0,0,1-.48-5.23c0-1.47.14-2.79.13-3.88,0-.56-.08-1-.1-1.56s-.18-1-.3-1.56a17.31,17.31,0,0,0-3.25-6.07,35.28,35.28,0,0,0-5.56-5.41c-2.07-1.69-4.32-3.25-6.59-4.8l.81-1.62c5.23,1.88,10.51,4,15.31,7.78a22.81,22.81,0,0,1,6.11,7.34c.36.76.71,1.55,1,2.35a25.39,25.39,0,0,1,.7,2.47c.36,1.64.53,3.07.76,4.34a9.79,9.79,0,0,0,.82,2.89,1.71,1.71,0,0,0,.45.57,1.12,1.12,0,0,0,.37.12c.23,0,.78.18,1.79.29s2.34.16,4,.44a35.54,35.54,0,0,1,18,8.63A42.28,42.28,0,0,1,166,222c.5.73,1,1.48,1.42,2.26s.86,1.57,1.26,2.38a46.37,46.37,0,0,1,2,4.75c1,3,1.68,5.76,2.25,8,.28,1.12.54,2.12.79,3a19.47,19.47,0,0,0,.77,2.34,16,16,0,0,0,2.57,4.44,31.79,31.79,0,0,0,4.71,4.59c1.89,1.54,4,3,6.31,4.6s4.67,3.15,7.06,5.05Z"/><path class="cls-1" d="M146.76,25.88c-.92-.55-1.85-1.09-2.79-1.6A23.74,23.74,0,0,1,146.76,25.88Z"/><path class="cls-1" d="M73,84.68A17.71,17.71,0,0,1,76,82.42l.39-.26a10.7,10.7,0,0,0,2.7-2.71c1.94,2.41,3.77,4.7,5.38,7.07a4.19,4.19,0,0,1-2.58,1.82,50.17,50.17,0,0,1-6.24.82l-2,.19a1.55,1.55,0,0,0,0-.21A25.9,25.9,0,0,1,73,84.68Z"/></g></g></svg>