<svg xmlns="http://www.w3.org/2000/svg" viewBox="0 0 268.74 374.18"><defs><style>.cls-1{fill:#656565;}</style></defs><g id="Layer_2" data-name="Layer 2"><g id="Layer_1-2" data-name="Layer 1"><path class="cls-1" d="M268.73,115.24c-.08-1.39-.13-2.79-.19-4.19v-.16a106.28,106.28,0,0,0-.77-10.7c-1-7.45-3.94-12.4-9-15.19a3.45,3.45,0,0,0,1.12-3.18c-.06-.34-.12-.67-.17-1a3.42,3.42,0,0,0-2.24-2.68c-5.16-1.83-9.52-3-14-3a21,21,0,0,0-8.36,1.67A3.4,3.4,0,0,0,233.77,74l-.75-.56a3.35,3.35,0,0,0-2-.65,3.49,3.49,0,0,0-2.72,1.33c-.46.6-1,1.21-1.48,1.81a32.26,32.26,0,0,0-3.45,4.67c-10.09,17.68-15,35.92-14.61,54.23.15,7,2.45,13.72,4.69,20.26.47,1.39.95,2.78,1.39,4.16l1.8,5.49c4.5,13.7,9.15,27.86,11.43,42.27.89,5.58,1.8,11.35-.37,16.65l-.22.53a5.09,5.09,0,0,1-4.52,2.73,4,4,0,0,1-1.26-.2,67.07,67.07,0,0,0-5.8-9.61,3.43,3.43,0,0,0-1.7-1.25l-1.34-.44c-5.16-6.61-11.33-12.43-17.3-18.06l-3.06-2.89c-16.68-15.87-24.62-31.95-25-50.6-.26-12.56,2.41-25,5-37.2.83-3.86,1.76-7.72,2.75-11.81l.3-1.22.87,1.47a2,2,0,0,0,1.72,1h.16a2,2,0,0,0,1.7-1.25c4.25-10.59,2.74-20.58-.31-29.92l3.64,3.16a2,2,0,0,0,1.32.49,2,2,0,0,0,1.34-.52l.86-.77a2,2,0,0,0,.28-2.65c-1.46-2-2.9-4.11-4.35-6.17C179.62,54,176.35,49.3,173,44.84c-2.41-3.17-5-6.28-7.45-9.28-2.74-3.31-5.58-6.74-8.17-10.23-8.31-11.22-19-17.1-31.75-17.47a3.42,3.42,0,0,0-2.77-1.43l-.88,0,.55-.47a3.44,3.44,0,0,0,.94-3.82A3.39,3.39,0,0,0,120.27,0h-.11a50.68,50.68,0,0,0-26.4,7.87,3.41,3.41,0,0,0-3.36-4,3.3,3.3,0,0,0-1.6.4C82.18,7.76,75.34,11.39,72.39,19.6c-.1.29-.22.58-.34.88a13.81,13.81,0,0,0-1.21,5c0,3.4-2.28,5.62-5,8L64,35c-5.37,4.67-10.93,9.49-16.63,13.84-6.3,4.81-9.37,7.82-9.76,11.87s2,7.53,6.91,13.06c2.47,2.8,5.62,5.73,10.38,6.43a1.8,1.8,0,0,1,.2.19l.53.46c1.17,1,2.34,1.94,3.5,2.92l2,1.68a3.5,3.5,0,0,0,1.28.67,4,4,0,0,0,.21.95l.12.32c-6.77,6.42-7.46,14.33-1.91,22.42a6.38,6.38,0,0,0,5,2.44l.39,0c1.58-.12,3.09-.35,4.59-.59.85-.13,1.73-.26,2.59-.37-5,5.1-9.22,11-11,19A3.39,3.39,0,0,0,64,134l.11.06,0,.1a36.84,36.84,0,0,1-11.14-10.59c-.19-.3-.39-.68-.61-1.11a13.27,13.27,0,0,0-1.59-2.54A205.08,205.08,0,0,1,33.17,94.68a15.73,15.73,0,0,0-8-6.61,3.42,3.42,0,0,0-3.29.43,45.39,45.39,0,0,0-5.73-1c-2.14-.28-4.27-.44-6.51-.6l-3-.24H6.4a2,2,0,0,0-1.73,1l-.46.79c-.88,1.52-1.82,3.15-2.74,4.78C-.93,97.4,0,101,1.41,104.93c2.53,7.14,6.08,14.18,14.89,17.34a5.07,5.07,0,0,1,1.29,2.35,21.57,21.57,0,0,0,9.71,12.59c6.42,4,9.81,10.32,13.4,17l.46.86A75.35,75.35,0,0,0,58.29,177l-3.37,2.29C51,182,47,184.7,43,187.45c-9.65,6.75-19.63,13.72-27.58,23.12C13.34,213,10.62,216.85,9.58,221a10.86,10.86,0,0,0,1.6,8.95A14.31,14.31,0,0,0,21.5,235.7a34.9,34.9,0,0,0,3.93.22,34.17,34.17,0,0,0,17.38-4.81,3.41,3.41,0,0,0,1.27.24,3.36,3.36,0,0,0,1.75-.48c.14-.08.27-.17.4-.26l.09-.06c6-4.12,8.26-10.43,9.48-14.82,1.05-3.81,4.07-7.34,8.28-9.69a20.39,20.39,0,0,1,9.85-2.65,16.3,16.3,0,0,1,4.61.64A7.49,7.49,0,0,1,81,205.41c10.38,8.38,22.27,16.1,37.4,24.32,1.77,1,3.82,2.08,5.76,3.22,5,2.9,7.2,6.58,7.07,11.57l-.06,2.47c-.07,3.2-.15,6.51-.44,9.71a2.64,2.64,0,0,0,0,.28,3.4,3.4,0,0,0,1.18,2.59c-1.27,16.53,3.83,31.86,15.18,45.6,9.68,11.73,9.43,25.65-.65,37.25-1.39,1.59-2.78,3.2-4.16,4.8L138.1,352c-5.29,6.07-6.55,9.53-6.76,18.5a2,2,0,0,0,1.83,2c3,.26,5.41.39,7.68.39.59,0,1.17,0,1.73,0a3.44,3.44,0,0,0,2.65,1.26h.3a35.16,35.16,0,0,0,14.82-4.45c6.81-3.94,10-10.48,12.35-17,1.13-3.08,2.13-6.24,3.09-9.3,1.32-4.18,2.68-8.5,4.39-12.53,2.13-5,4.79-10,7.37-14.82,1.14-2.13,2.32-4.34,3.44-6.53.28-.55,1.46-2.8,1.46-2.8a3.39,3.39,0,0,0-.57-3.94c-.57-.59-1.15-1.16-1.73-1.74a42.18,42.18,0,0,1-3-3.19c-3.07-3.69-3.15-6.36-.32-9.53a128.59,128.59,0,0,1,9.79-9.49l2.21-2c.37.4.71.79,1.05,1.18,1.46,1.7,2.94,3.39,4.41,5.08l1.8,2.05a3.4,3.4,0,0,0,2.58,1.17h.29c2.2,2.55,4.1,4.79,6,7.09,9.86,12.15,10.13,21.91.94,34.79-1,1.38-2,2.73-3,4.09l-.34.46c-5,6.69-5.1,7.28-3.1,15.83a2,2,0,0,0,1.81,1.54c.67.05,1.34.07,2,.07.91,0,1.84,0,2.77-.12a3.39,3.39,0,0,0,3.07,1c13.78-2.31,26.55-12.49,31.05-24.74,2.52-6.84,1-13.43-.42-17.8-2.09-6.54-3.92-14.34-1.68-22.67,2-7.5-.4-14.57-6.8-19.9-5.79-4.82-8.63-11.49-11.44-18.63,1-.28,2-.56,2.93-.87,8.07-2.5,13-8.28,14.26-16.66,0-.17,0-.26,0-.28a83.43,83.43,0,0,0-4-40.33c-2-5.72-4.29-11.44-6.48-17-2.94-7.47-6-15.2-8.48-22.92a207.62,207.62,0,0,1-5.58-23.22l0-.1q-.65-3.26-1.32-6.49a22,22,0,0,1,.06-6.26l0-.45c.88-9.24,6.23-13.93,15.92-13.93h.63c11.36.23,18.06,4.93,21.72,15.24a19.25,19.25,0,0,0,3.08,5.86,3.37,3.37,0,0,0,2.66,1.28,3.18,3.18,0,0,0,1.06-.17,3.42,3.42,0,0,0,2.35-3.09c0-.22,0-.45.05-.68A17,17,0,0,0,268.73,115.24Zm-5.2-4.14c-4.06-8.68-12.11-15.74-21.58-17.27s-20,3.25-23.9,12c-3.13,7-1.94,15-.36,22.46A259.14,259.14,0,0,0,229.09,167c4.51,11.83,9.92,23.41,12.59,35.79,2.63,12.19,4.39,34.55-10.41,39.15-1.31.41-2.65.79-4,1.15l-2,.56a1.41,1.41,0,0,0-1,1.18c0,.1,0,.18-.05.26a2.64,2.64,0,0,0,0,1,9.09,9.09,0,0,0,.45,1.6l.06.13c3.08,7.87,6.26,16,13.36,21.91,3.45,2.87,7.15,7.79,5.23,14.94-2.57,9.53-.56,18.18,1.74,25.38,1.88,5.95,2,10.47.49,14.67-3.43,9.33-12.4,17.29-22.69,20.54,3.07-3.33,6.27-7.3,8.1-12,3.78-9.72.95-20.62-1.52-28-.65-2-1.36-3.93-2.05-5.83-2.37-6.58-4.83-13.39-5.23-20.34a1.41,1.41,0,0,0-1.83-1.26l-11.26,3.48L207.91,280c-1.47-1.68-2.94-3.36-4.39-5.05-.62-.72-1.26-1.41-2-2.22l-1.46-1.6a1.4,1.4,0,0,0-2-.08c-1.58,1.49-3.19,2.94-4.74,4.35a132.19,132.19,0,0,0-10.09,9.8c-4.45,5-4.38,10.31.2,15.83a47.35,47.35,0,0,0,3.36,3.56l.92.91,0,.09c-.32.61-.64,1.22-1,1.83-1.11,2.16-2.28,4.34-3.41,6.45-2.63,4.92-5.34,10-7.56,15.22-1.79,4.23-3.19,8.66-4.54,13-.95,3-1.93,6.1-3,9.09-2.08,5.63-4.75,11.28-10.23,14.44a28.42,28.42,0,0,1-8.85,3.27c4.76-5.33,7.29-10.4,8.08-16.08.21-1.52.27-3.05.33-4.54a23.28,23.28,0,0,1,1.12-7.49,23.57,23.57,0,0,1,3.11-5.1c.63-.86,1.28-1.74,1.87-2.67,9.28-14.52,1.9-33.34-3.33-43.27a134.82,134.82,0,0,0-24.7-33.2c.26-3.13.33-6.29.41-9.35,0-.82,0-1.63.06-2.45.17-6.75-3-12.09-9.46-15.87-2-1.18-4.1-2.32-5.89-3.29-14.88-8.08-26.53-15.65-36.68-23.84a12.3,12.3,0,0,0-4.13-2.26,24,24,0,0,0-18.15,2.44c-5.33,3-9.18,7.56-10.58,12.61s-3.34,8.57-6.14,11c-.15-.69-.31-1.38-.47-2.06-1-4.33-1.95-8.42-1.09-12.43,1.52-7.07,8.33-11.71,13.78-14.37,2-1,4.19-1.9,6.27-2.78,4.63-1.95,9.42-4,13.51-7.14A10.64,10.64,0,0,0,80.3,183c2.84-6-3.71-11.91-5.87-13.85-27-24.32-43.33-49.63-48.64-75.29A10.52,10.52,0,0,1,29,97.17,207.65,207.65,0,0,0,47,123a8.79,8.79,0,0,1,1,1.67,15,15,0,0,0,.87,1.54c3.73,5.62,9,10.24,16.15,14.11a1.44,1.44,0,0,0,1.15.09,1.47,1.47,0,0,0,.84-.8c1.68-4.11,3.26-8,4.84-11.81a1.45,1.45,0,0,0-.4-1.64l-.36-.31a1.42,1.42,0,0,0-1.87,0l-.6.54c3.56-8.57,10.62-14.35,18-20.41l2.72-2.24a1.43,1.43,0,0,0,.5-1.21,1.41,1.41,0,0,0-.7-1.1L87,100.24l-3-1.75a1.41,1.41,0,0,0-2.07.87c-1.16,4.4-3.77,6.51-8.75,7.08-1.05.12-2.09.28-3.1.44-1.44.22-2.8.43-4.18.54a1.77,1.77,0,0,1-1-.38c-4.57-6.66-3.64-12.39,2.85-17.49a1.41,1.41,0,0,0,.47-1.63l-.31-.83,1.3-.12A54.71,54.71,0,0,0,76,86.05,8.73,8.73,0,0,0,82,81.18a4.16,4.16,0,0,0-.25-3.93C80,74.53,78,72,75.8,69.35,74.89,68.22,74,67.07,73,65.87a1.38,1.38,0,0,0-1.12-.54,1.41,1.41,0,0,0-1.12.55c-.65.85-1.2,1.67-1.68,2.39a10.11,10.11,0,0,1-2.38,2.87l-.39.26c-4.44,2.95-5.54,4-5.08,7.85-.85-.72-1.7-1.43-2.56-2.13-.14-.11-.27-.23-.4-.35A4.21,4.21,0,0,0,56,75.47c-3.25-.34-5.5-2.2-7.87-4.89-3.88-4.39-5.94-7.19-5.73-9.4s2.94-4.72,7.89-8.5c5.83-4.45,11.45-9.33,16.89-14L69,37.06c3.19-2.76,6.6-6.16,6.65-11.56a10.11,10.11,0,0,1,.89-3.27c.13-.33.26-.66.38-1,2-5.46,6.17-8.38,11.25-11.18l-1.61,6a1.43,1.43,0,0,0,.61,1.57,1.42,1.42,0,0,0,1.68-.13C96.49,11,106.08,5.73,116.28,5.2A45,45,0,0,0,113,8.69a1.75,1.75,0,0,0,1.14,2.93c6,.51,13.7.52,17.08,6.3a25.71,25.71,0,0,1,2.38,19.27c-1.85,6.7-6.29,11.91-10.09,17.39a98.38,98.38,0,0,0-12.35,24.71c-1.3,3.84-2.4,8-1.75,12.06a27.44,27.44,0,0,0,3.4,8.56c3.07,5.71,6.19,11.5,10.42,16.1,3.23,3.51,7,6.23,10.54,9.35,7.14,6.33,15.69,14.06,16.55,24.21.27,3.27.31,6.54.77,9.78.88,6.12,2.5,12.11,3.8,18.15a94.58,94.58,0,0,0,5.6,17.7c2.63,6.07,6.2,12.8,12.13,16.43,12.39,7.59,31.74.18,41,11.38,2.74,3.33,4.28,8.09,9,8.78a8,8,0,0,0,6.5-2.17c3.63-3.36,4.34-8.31,4.44-13,.64-30.14-19.56-57.66-19.67-87.81-.07-17.23,6.53-33.9,15.56-48.57a5,5,0,0,0,1.18,5.05,20.55,20.55,0,0,1,22.27-3.36A13.72,13.72,0,0,0,241,86.53a19.56,19.56,0,0,1,22.58,24.57Z"/><path class="cls-1" d="M73.44,46.4c-1,1.47-2.79,1.83-4.36,2.05h-.17a1.58,1.58,0,0,1-1.12-.52l-.7-.78a1.42,1.42,0,0,1,.11-2l4.42-4.07A1.4,1.4,0,0,1,73,40.81a1.42,1.42,0,0,1,1,1A5.65,5.65,0,0,1,73.44,46.4Z"/><path class="cls-1" d="M88.36,162.33c6.36,2.28,12.79,4.87,18.62,9.46a28,28,0,0,1,7.45,8.94,30.27,30.27,0,0,1,1.21,2.86c.29,1,.67,2,.86,3,.43,2,.64,3.73.92,5.27a12.57,12.57,0,0,0,1,3.52,2,2,0,0,0,.56.69,1.13,1.13,0,0,0,.45.15c.27,0,.94.22,2.17.35s2.84.2,4.92.54a43.11,43.11,0,0,1,21.92,10.5,51.54,51.54,0,0,1,8.34,9.46c.62.88,1.18,1.8,1.73,2.75s1,1.91,1.54,2.9a56.86,56.86,0,0,1,2.37,5.77c1.25,3.68,2.05,7,2.74,9.72.34,1.35.65,2.57.95,3.65a25.55,25.55,0,0,0,.94,2.84,19.22,19.22,0,0,0,3.13,5.4,37.87,37.87,0,0,0,5.74,5.59c2.29,1.87,4.91,3.7,7.67,5.6s5.69,3.84,8.6,6.14l-.47,2.15A50.83,50.83,0,0,1,180.83,271a48.21,48.21,0,0,1-11.22-1.06,37.93,37.93,0,0,1-11.49-4.55,32.75,32.75,0,0,1-10.06-9.54,32,32,0,0,1-3.31-6.22,42.14,42.14,0,0,1-1.87-6,88,88,0,0,1-1.6-9.86,30.89,30.89,0,0,0-1.53-7.23,22.18,22.18,0,0,0-3.73-6.47,27.76,27.76,0,0,0-5.72-5.19,27.45,27.45,0,0,0-7-3.5c-1.17-.45-2.86-.8-4.9-1.43a23.73,23.73,0,0,1-3.34-1.27,15.8,15.8,0,0,1-3.62-2.33,14.38,14.38,0,0,1-2.91-3.53A15,15,0,0,1,107,199a24.32,24.32,0,0,1-.58-6.36c0-1.79.16-3.4.15-4.72,0-.68-.1-1.25-.12-1.91s-.23-1.25-.37-1.89a21.07,21.07,0,0,0-4-7.39,43.19,43.19,0,0,0-6.77-6.58c-2.52-2.06-5.25-3.95-8-5.85Z"/><path class="cls-1" d="M139.77,18.88c-.92-.55-1.85-1.09-2.79-1.6A23.74,23.74,0,0,1,139.77,18.88Z"/><path class="cls-1" d="M66,77.68A17.71,17.71,0,0,1,69,75.42l.39-.26a10.5,10.5,0,0,0,2.69-2.71c1.94,2.41,3.78,4.7,5.39,7.07a4.19,4.19,0,0,1-2.58,1.82,50.17,50.17,0,0,1-6.24.82l-2,.19c0-.07,0-.14,0-.21A25.9,25.9,0,0,1,66,77.68Z"/></g></g></svg>