<svg xmlns="http://www.w3.org/2000/svg" viewBox="0 0 287.83 303.55"><defs><style>.cls-1{fill:#656565;}</style></defs><g id="Layer_2" data-name="Layer 2"><g id="Layer_1-2" data-name="Layer 1"><path class="cls-1" d="M196.93,268.92a11.86,11.86,0,0,0-1.15-.86c-.35-.24-.54-.37-.74-.48a11.32,11.32,0,0,0-2-.93,33.67,33.67,0,0,0-4.34-.26c-.85,0-1.71,0-2.56.07l-.55,0a10.21,10.21,0,0,1-7-2.83,1,1,0,0,1-.24-.31,24.66,24.66,0,0,1-2.86-7.39,14.65,14.65,0,0,0-2.46-3.28,15.62,15.62,0,0,0-1.44-1.27l-.3-.22c-.5-.35-.83-.58-1.18-.79l-.65-.16a31.15,31.15,0,0,0-5-.48c-.34,0-.71-.05-1.08-.05a14,14,0,0,0-12.44,7.46.51.51,0,0,0,0,.48.53.53,0,0,0,.42.26c2.91.19,4.88,1.24,5.86,3.13,1.36,2.57.2,5.41-.82,7.92-1.15,2.82-1.57,4.25-.53,5.15a1.53,1.53,0,0,0,1,.41l.3,0c1.42-.23,3.36-1.93,4.62-4.05.67-1.15,3.13-4.92,6.45-5.59a5.17,5.17,0,0,1,.95-.09,4.35,4.35,0,0,1,2.67.91c2.51,1.87,2,4.91,1.58,7.58-.34,2.06-.65,4,.32,5.11a2.31,2.31,0,0,0,1.81.72c1.71,0,4-1.23,5.61-2.26a51.49,51.49,0,0,1,15.87-6.68.5.5,0,0,0,.38-.36.52.52,0,0,0-.15-.51Z"/><path class="cls-1" d="M238.15,290.33h-.53A13,13,0,0,1,228,285.4a21.9,21.9,0,0,1-1.56-2.32,17,17,0,0,0-1.69-2.44,16.61,16.61,0,0,0-3.39-3.18.47.47,0,0,0-.3-.1h0c-1.5.1-3,.13-4.47.13l-3,0c-1.13,0-2.27,0-3.38.08h0a16.44,16.44,0,0,0-11,4.14,7.25,7.25,0,0,0-.64,9.73,6.45,6.45,0,0,0,4.91,1.76,34.82,34.82,0,0,0,7.74-1.33c.75-.19,1.47-.37,2.18-.53a34.5,34.5,0,0,1,17.9.72l2.4.8c3.54,1.2,7,2.38,10,2.38a6.72,6.72,0,0,0,5.21-2,19.68,19.68,0,0,0,2.29-4.26.51.51,0,0,0-.06-.48.5.5,0,0,0-.41-.22h0a29.14,29.14,0,0,0-5.62,1A29.67,29.67,0,0,1,238.15,290.33Z"/><path class="cls-1" d="M49.91,165.94a.39.39,0,0,0-.18,0,36.36,36.36,0,0,1-13,2.4,35.65,35.65,0,0,1-5.17-.37,89.5,89.5,0,0,0-13.15-2.51l-.76,0a8.7,8.7,0,0,0-8.13,5.71c-.58,3.18,1.45,5.87,3.81,9,2.17,2.89,4.41,5.85,4.72,9.5a17.72,17.72,0,0,1-.05,2.74A12.86,12.86,0,0,0,18,195c.16,1.15,1,2.38,1.9,2.38a2.64,2.64,0,0,0,1.58-.84,25.45,25.45,0,0,0,2.93-3.39,22.68,22.68,0,0,1,4.15-4.46A9.22,9.22,0,0,1,34,187a7.78,7.78,0,0,1,2,.26,5.27,5.27,0,0,1,3.61,3.12,9.32,9.32,0,0,1,.39,4.18,5.28,5.28,0,0,0,.32,3.12,1.75,1.75,0,0,0,1.35.86l.36,0c1.64,0,4-1.23,5.94-3.06,0,0,4.82-4.66,6-5.82a25.76,25.76,0,0,0-3.63-23.51A.52.52,0,0,0,49.91,165.94Z"/><path class="cls-1" d="M41.34,101.51A81.56,81.56,0,0,0,36,92,39.11,39.11,0,0,0,17.3,81.47h-.11a.52.52,0,0,0-.37.16,1.91,1.91,0,0,0-.5,1c-.39,1.71.65,4.6,2.47,6.87.95,1.2,4,5.39,3.41,9.17A4.93,4.93,0,0,1,20,102.08a13.46,13.46,0,0,0-1.9,1.11c-.65.61-.13,1.61,1.76,4.33,1.73,2.48,3.87,5.58,1.55,8.22a6.16,6.16,0,0,1-2.5,1.55,4.25,4.25,0,0,0-1.43.77,2.26,2.26,0,0,0,.34,2.85,9.8,9.8,0,0,0,4,2.24,16.93,16.93,0,0,1,9.42,6.51,21.77,21.77,0,0,1,1.91,5.05c.95,3.32,1.63,5.38,3.66,5.85a4,4,0,0,0,.56,0,4.68,4.68,0,0,0,2.64-.87.51.51,0,0,0,.2-.5,76,76,0,0,0-1.76-7.82c-1.23-4.49-2.2-8-.27-13.12C40.59,111.89,42.44,103.86,41.34,101.51Z"/><path class="cls-1" d="M283.86,216.26l-.12-.31A168.62,168.62,0,0,0,268.31,188c-.08-.1-.2-.28-.27-.39a61.33,61.33,0,0,1-6.94-15.79,2.5,2.5,0,0,1-.07-.26c-.55-2.26-.93-4.75-1.31-7.26-.85-5.57-1.81-11.89-5.15-17.82a3.62,3.62,0,0,0-.2-.33,45.17,45.17,0,0,0-21.86-17.23l-.45-.18c-3.8-1.69-7.74-3.25-11.62-4.79-10.15-4-19.73-7.8-27.51-14.09a79.36,79.36,0,0,1-9-8.83,7.66,7.66,0,0,1-.52-9.55,6.85,6.85,0,0,0,1.18-2.74,32.07,32.07,0,0,0,.52-8.42,7.66,7.66,0,0,1,5.41-7.84,21.31,21.31,0,0,0,14.78-16.78,6.73,6.73,0,0,0,0-1.94l0-.26c0-.15-.05-.3-.1-.51a7.19,7.19,0,0,0-.79-2l-.16-.27A7,7,0,0,0,203,49.22a4.87,4.87,0,0,0-.42-.35l-.2-.14a6.67,6.67,0,0,0-1.22-.64,6.34,6.34,0,0,0-1-.36,5.11,5.11,0,0,0-.59-.13,6.61,6.61,0,0,0-.79-.07l-.48,0a7.28,7.28,0,0,0-1,.09,12.94,12.94,0,0,1-2.07.16,13.14,13.14,0,0,1-10-4.59,58.71,58.71,0,0,1-5.58-8.34c-1.34-2.24-2.85-4.78-4.5-7.07a2.25,2.25,0,0,1-.24-.36,28,28,0,0,0-21.47-12.7h-.48a32.56,32.56,0,0,0-8.52,1.63c-1.18.35-2.47.71-2.93.82a7.52,7.52,0,0,1-1.65.18,8.34,8.34,0,0,1-2.91-.53,10,10,0,0,1-6.73-9.65,7,7,0,0,0-7-7.14c-.19,0-.48,0-.67,0-5.87.56-10.42,5.82-11.06,12.81,0,.21,0,.41,0,.62,0,.69,0,1.39,0,2.09a7.65,7.65,0,0,1-5.48,7.12c-.62.19-1.38.39-2.3.59a9.65,9.65,0,0,1-1.06.15,27.26,27.26,0,0,0-19.1,10A7.18,7.18,0,0,0,82,39.07a7.66,7.66,0,0,1-3.18,7.66,19.46,19.46,0,0,0-7.9,10.71,13.3,13.3,0,0,0-.31,5.05A7.64,7.64,0,0,1,68,69.37c-6,5.1-9.11,10-9.63,15.6a7.65,7.65,0,0,1-12.64,5l-1.92-1.68-3.15-2.75a3.17,3.17,0,0,1-.34-.3A47.43,47.43,0,0,0,17.28,73a7.37,7.37,0,0,0-1.48-.16,7,7,0,0,0-3.09.72A10.44,10.44,0,0,0,7.1,80.72c-1,4.32.7,8.49,2.26,11.22a7.63,7.63,0,0,1,.06,7.49c-1.31,2.39-1.33,5.08-.07,8.23A7.66,7.66,0,0,1,9,114.14,10.83,10.83,0,0,0,11,127a18.78,18.78,0,0,0,7.61,4.22,7.65,7.65,0,0,1,5.23,5.17L24,137a21.4,21.4,0,0,0,3.73,8,7.66,7.66,0,0,1-5.88,12.55,7.42,7.42,0,0,1-1.05-.08c-.84-.11-1.68-.22-2.65-.33-.49,0-1-.06-1.46-.06A17.05,17.05,0,0,0,.56,168.42a6.72,6.72,0,0,0-.28,1C-1.1,176.28,3,181.66,5.62,185.2c.5.65,1.16,1.53,1.63,2.21a7.67,7.67,0,0,1,1.33,4.85,19.18,19.18,0,0,0,.08,3.9c.77,5.48,5.23,9.62,10.38,9.62h.44l.43,0a11,11,0,0,0,4.88-1.85,7.65,7.65,0,0,1,9.36.53,10.25,10.25,0,0,0,5.47,2.42,12.4,12.4,0,0,0,1.36.08c5.54,0,10.13-3.82,11.81-5.43l5.7-5.51a7.64,7.64,0,0,1,5.35-2.19,7.34,7.34,0,0,1,.81.05,7.63,7.63,0,0,1,5.56,3.37,7.2,7.2,0,0,0,3,2.53,7,7,0,0,0,7.52-1.11,30.15,30.15,0,0,0,5.55-6.46A8.16,8.16,0,0,1,93,188.62a7,7,0,0,0,1.71-.21,13,13,0,0,0,7.87-5.55,7.65,7.65,0,0,1,6.29-3.3,7.81,7.81,0,0,1,2.33.36,7.66,7.66,0,0,1,5.33,7.39c-.08,5.64.49,12.1,5.23,17.17a18.06,18.06,0,0,0,13.82,5.69,31.08,31.08,0,0,0,7.92-1.1,7.54,7.54,0,0,1,1.94-.25,7.65,7.65,0,0,1,7.64,7.25,41,41,0,0,0,4.39,16.41A7.64,7.64,0,0,1,153.61,243a22.31,22.31,0,0,0-12.84,14.4,6.94,6.94,0,0,0,1.33,6.39,6.45,6.45,0,0,0,1.05,1,7.69,7.69,0,0,1,2.86,6.8,9.31,9.31,0,0,0,3.3,8.78,10,10,0,0,0,6.56,2.48,10.28,10.28,0,0,0,1.65-.13,12,12,0,0,0,1.57-.38,7.69,7.69,0,0,1,7.77,1.94,10.45,10.45,0,0,0,7.61,3.15,14.07,14.07,0,0,0,4.29-.69,7.63,7.63,0,0,1,9.58,4.94,16.17,16.17,0,0,0,2.69,5c.11.14.23.27.35.4a14.88,14.88,0,0,0,11.13,4.38,41.23,41.23,0,0,0,9.89-1.59c.62-.16,1.23-.31,1.81-.44a26,26,0,0,1,13.49.54c.73.23,1.48.48,2.42.8,3.76,1.28,8,2.73,12.48,2.73a15.15,15.15,0,0,0,11.56-4.85c.13-.14.26-.3.39-.47a28.43,28.43,0,0,0,3.63-6.79,7.67,7.67,0,0,1,3.87-4.24,16.77,16.77,0,0,0,2-1.13,7.72,7.72,0,0,1,7.82-.6,6.73,6.73,0,0,0,2.2.67,8.14,8.14,0,0,0,1,.06,7,7,0,0,0,6.84-5.44C286.07,262.82,291.78,238.25,283.86,216.26Zm-6.42,63.28a1.38,1.38,0,0,1-1.36,1.1,1.43,1.43,0,0,1-1.4-1.46,39.88,39.88,0,0,0-7.26-24.49,1.63,1.63,0,0,0-.17-.2c-1.19-2.07-2.57-4.25-3.95-6.44a138.8,138.8,0,0,1-7.69-13.15,64.32,64.32,0,0,1-6.37-26.57.52.52,0,0,0-.46-.5h-.05a.52.52,0,0,0-.5.38,58,58,0,0,0-1.75,18.29,52.18,52.18,0,0,0,10.65,28.58,50.64,50.64,0,0,1,8.17,11.77,12.1,12.1,0,0,1-3.15,14.48,15.61,15.61,0,0,1-2.76,1.4,10.61,10.61,0,0,0-2.55,1.35,7.92,7.92,0,0,0-2.23,3.38A23.69,23.69,0,0,1,251,295a9.62,9.62,0,0,1-7.4,3c-3.53,0-7.33-1.29-10.68-2.43l-2.52-.84a31.85,31.85,0,0,0-9.45-1.44,31.44,31.44,0,0,0-7,.78c-.66.15-1.33.32-2,.49a36.43,36.43,0,0,1-8.44,1.41,9.35,9.35,0,0,1-7.11-2.69,10.17,10.17,0,0,1,.84-13.63,19.43,19.43,0,0,1,12.82-4.88c1.1-.07,2.23-.08,3.36-.08l3.8,0c1.2,0,2.78,0,4.35-.16.39,0,.78-.07,1.19-.12a9,9,0,0,0,4.7-1.68,5.92,5.92,0,0,0,2-4.94.54.54,0,0,0-.37-.48l-.15,0a.51.51,0,0,0-.42.23,10.08,10.08,0,0,1-3.66,3.26l-.24.1a27.23,27.23,0,0,1-8,1.21,26.83,26.83,0,0,1-4.9-.45c-.95-.06-1.85-.09-2.76-.09a48.11,48.11,0,0,0-8.22.71,48.67,48.67,0,0,0-18,6.91c-2.82,1.81-5.25,2.73-7.22,2.73a4.83,4.83,0,0,1-3.81-1.69c-1.85-2.1-1.38-5-1-7.41.41-2.52.58-4.1-.49-4.9a1.64,1.64,0,0,0-1-.35,1.9,1.9,0,0,0-.4.05c-1.38.27-3.27,2-4.59,4.25s-3.81,5-6.58,5.4a4.88,4.88,0,0,1-.76.07,4.26,4.26,0,0,1-2.87-1.1c-2.66-2.32-1.31-5.65-.22-8.32.83-2,1.69-4.15.94-5.57-.57-1.1-2-1.64-4.33-1.64-.53,0-1.11,0-1.74.08h0a1.47,1.47,0,0,1-1.19-.5,1.39,1.39,0,0,1-.27-1.28,16.81,16.81,0,0,1,16.07-12.1c.44,0,.88,0,1.33.05.67,0,1.35.06,2,.11h0a1.09,1.09,0,0,0,.26-.05h0a9.48,9.48,0,0,1,3.05.46l.84.18a81.86,81.86,0,0,1,8.9,2.51c1.92.61,3.79,1.21,5.66,1.72a22.69,22.69,0,0,0,7.93,1.43,22.17,22.17,0,0,0,5.67-.74.5.5,0,0,0,.38-.5.51.51,0,0,0-.41-.49c-11-2.28-22.25-5.53-30.16-13.88a35.68,35.68,0,0,1-8.6-29.88,41.49,41.49,0,0,1,3.34-11.4.51.51,0,0,0-.1-.56.52.52,0,0,0-.37-.16.43.43,0,0,0-.19,0l-2.41,1c-3.08,1.25-6.18,2.52-8.63,3.68-5.89,2.78-11,4.2-15.21,4.2a12.67,12.67,0,0,1-9.71-3.9c-4.07-4.36-3.85-10.68-3.66-16.25,0-1.28.1-2.51.09-3.71a19.53,19.53,0,0,0-4.88-14.17,9.38,9.38,0,0,0-6.86-2.93,9.65,9.65,0,0,0-6,2.09c-1.77,1.73-2.75,4.64-3.71,7.46-1.36,4.06-2.92,8.66-7.53,9.82a1.32,1.32,0,0,1-.34,0,1.39,1.39,0,0,1-1.39-1.21,29.44,29.44,0,0,1,.14-9.23.52.52,0,0,0-.2-.51.55.55,0,0,0-.3-.09.54.54,0,0,0-.25.06c-3.39,1.86-5.35,6.55-6,8.47a24.77,24.77,0,0,1-8,13.9,1.41,1.41,0,0,1-.92.34,1.48,1.48,0,0,1-.59-.12,1.42,1.42,0,0,1-.82-1.29,20.6,20.6,0,0,0-1.85-8.65,6,6,0,0,0-5.39-3.38,7,7,0,0,0-.78.05,9.56,9.56,0,0,0-3.91,2.66c-2.48,2.41-4.89,4.73-7.29,7l-.15.21c-1.29,1.26-6.39,6.19-6.39,6.19-1.86,1.77-5,3.84-7.91,3.84-.23,0-.45,0-.67,0a4.56,4.56,0,0,1-3.39-2.15,7.63,7.63,0,0,1-.76-4.81,6.81,6.81,0,0,0-.18-2.94,2.51,2.51,0,0,0-1.76-1.47,4.87,4.87,0,0,0-1.3-.16A6.26,6.26,0,0,0,30.26,191a19.91,19.91,0,0,0-3.62,3.94,27.53,27.53,0,0,1-3.16,3.65,5.42,5.42,0,0,1-3.28,1.65h0c-2.85,0-4.65-2.46-5-4.79a14.89,14.89,0,0,1,0-3.2,15.37,15.37,0,0,0,0-2.33c-.23-2.82-2.14-5.34-4.15-8C8.67,178.64,5.9,175,6.79,170.57a11.56,11.56,0,0,1,10.93-7.9c.33,0,.66,0,1,0a90.75,90.75,0,0,1,13.44,2.56,32.42,32.42,0,0,0,4.59.33,33.75,33.75,0,0,0,13.16-2.7,100.47,100.47,0,0,0,25.28-16.71,11.71,11.71,0,0,0,2.6-2.26.51.51,0,0,0-.39-.84.51.51,0,0,0-.17,0,24.91,24.91,0,0,1-5.36,1.19,23.05,23.05,0,0,1-3.25.22,27.05,27.05,0,0,1-19.4-8.26.51.51,0,0,0-.37-.15.39.39,0,0,0-.15,0c-1.13.35-2.47,1.67-3.77,3-.73.72-1.48,1.46-2.25,2.1a7.91,7.91,0,0,1-5.34,2.2,7.42,7.42,0,0,1-1-.08c-3.87-.88-4.87-4.41-5.84-7.83a20.91,20.91,0,0,0-1.58-4.31,14.14,14.14,0,0,0-7.8-5.31A13,13,0,0,1,15.85,123a5.12,5.12,0,0,1-.53-6.73,6.45,6.45,0,0,1,2.5-1.53,4.06,4.06,0,0,0,1.45-.8c.81-.92-.17-2.49-1.76-4.78-2.07-3-3.72-5.84-1.2-8.12a15.85,15.85,0,0,1,2.28-1.35,2.12,2.12,0,0,0,.84-1.45c.28-1.7-.86-4.5-2.84-7s-3.67-6.29-3-9.24a4.75,4.75,0,0,1,2.61-3.31,1.32,1.32,0,0,1,.62-.15,1.43,1.43,0,0,1,.29,0A41.94,41.94,0,0,1,37.85,89.8c1.16,1,2.2,1.89,3.24,2.8,6.33,5.57,12.88,11.31,20.78,13.23a7.3,7.3,0,0,0,2.11.32,6.68,6.68,0,0,0,1.83-.25c2.5-.93,3.14-4.77,2.33-7.8a46.79,46.79,0,0,1-3.24-11c-.14-7.76,6.83-12.91,12.43-17l.67-.49c.74-.54,2-1.58,2-2.46a5.51,5.51,0,0,0-1.26-1.87,7,7,0,0,1-1.34-6.35c.89-3.52,4.2-7.14,8-8.81,1.47-.65,3-1.18,4.54-1.69,3.76-1.27,7.31-2.48,9.47-5.28a1.82,1.82,0,0,0,.55-1.26.53.53,0,0,0-.21-.39,2,2,0,0,0-1-.39l-9.08-1.81A1.4,1.4,0,0,1,88.83,37a21.53,21.53,0,0,1,15.84-8c7.42-1.41,11.58-3.93,12.79-7.72a39.87,39.87,0,0,0,.55-8c.33-3.53,2.31-7.31,6-7.67h0a1.5,1.5,0,0,1,1,.37,1.45,1.45,0,0,1,.45,1.06,15.57,15.57,0,0,0,10.5,15.05,12.63,12.63,0,0,0,4.53.83,13.13,13.13,0,0,0,1.4-.07,30.6,30.6,0,0,0,5.11-1.19A26.87,26.87,0,0,1,154,20.35a22.22,22.22,0,0,1,17.27,10.41c1.63,2.21,3.09,4.67,4.5,7.05a64.14,64.14,0,0,0,6.12,9.06,18.81,18.81,0,0,0,17.26,6.31h.33a.94.94,0,0,1,.42.11l.26.11a2.37,2.37,0,0,1,.4.4,1.59,1.59,0,0,1,.2.52v0a2,2,0,0,1,0,.47,15.75,15.75,0,0,1-15.53,13h-.58c-5.12-.61-9.21-4-12.49-6.79a.5.5,0,0,0-.33-.12.51.51,0,0,0-.36.15.52.52,0,0,0,0,.7c1.4,1.55,2.73,3.19,4,4.89a27.17,27.17,0,0,1,4.63,21,1.4,1.4,0,0,1-1.08,1.1,1,1,0,0,1-.3,0,1.41,1.41,0,0,1-1.14-.59c-5.31-7.4-15.29-11.64-27.39-11.64a57,57,0,0,0-6.95.44,24.69,24.69,0,0,0-3.32.63.52.52,0,0,0-.38.58.51.51,0,0,0,.5.42h0c.73-.07,1.45-.1,2.19-.1,7.18,0,15.47,3.36,22.18,9a118.37,118.37,0,0,1,12.75,13.2c4.1,4.72,8.33,9.57,13.2,13.51,8.44,6.82,18.87,10.95,29,14.94,4,1.57,8,3.15,11.79,4.86a39.63,39.63,0,0,1,19.56,15.26c2.79,5,3.63,10.5,4.45,15.85.4,2.65.82,5.37,1.46,8a66.78,66.78,0,0,0,8,18,161,161,0,0,1,14.95,27C287,238.64,281.68,261.32,277.44,279.54Z"/><path class="cls-1" d="M269.54,221.42a44.9,44.9,0,0,1-7.46-13.72,22.41,22.41,0,0,1-.16-15.26.5.5,0,0,0-.05-.43,69.64,69.64,0,0,1-8-18.14c-.67-2.72-1.1-5.49-1.5-8.17-.82-5.4-1.59-10.44-4.08-14.88a36.88,36.88,0,0,0-18.21-14.13c-3.94-1.75-7.93-3.33-11.78-4.85-10.29-4.07-20.92-8.28-29.7-15.37-5.05-4.09-9.36-9-13.53-13.83a116,116,0,0,0-12.45-12.91c-6.23-5.22-13.82-8.34-20.32-8.34A16.62,16.62,0,0,0,131,85.52a1.43,1.43,0,0,1-.93.35,1.53,1.53,0,0,1-.66-.16,1.44,1.44,0,0,1-.73-1.43c.7-5.24,6-9,14.23-10a60.6,60.6,0,0,1,7.29-.46c11,0,20.54,3.34,26.75,9.4a.47.47,0,0,0,.35.15.65.65,0,0,0,.2,0,.5.5,0,0,0,.31-.47,24.46,24.46,0,0,0-4.59-14.53,59.79,59.79,0,0,0-14.74-14.17,1.4,1.4,0,0,1,.71-2.56c.22,0,.44,0,.66,0,5.43,0,9.66,3.55,13.74,7,3.67,3.08,7.14,6,11.33,6.49h.5a13,13,0,0,0,11.87-8.16.51.51,0,0,0-.06-.48.5.5,0,0,0-.42-.22l-.63,0a21.53,21.53,0,0,1-16.39-7.53,67.22,67.22,0,0,1-6.39-9.44c-1.39-2.34-2.82-4.74-4.43-6.94a19.41,19.41,0,0,0-15-9.17,24.8,24.8,0,0,0-6.06,1.25,33.29,33.29,0,0,1-5.6,1.29c-.5,0-1,.08-1.51.08s-1,0-1.44-.06h0a.51.51,0,0,0-.44.26.5.5,0,0,0,0,.54,20.55,20.55,0,0,0,6.12,6,67.17,67.17,0,0,0,11.49,2.35c4.5,1,9.22,3.93,9.49,7.95a1.4,1.4,0,0,1-.63,1.26,5.07,5.07,0,0,1-6.11-.35,14.71,14.71,0,0,1-1.48-1.17.71.71,0,0,0-.43-.16l-.12,0c-.17.06-.35.15-.39.32a5.52,5.52,0,0,1-3.44,4,3.63,3.63,0,0,1-1.47.31,4.38,4.38,0,0,1-.51,0,3.58,3.58,0,0,1-1.94-1.28,5.51,5.51,0,0,1-1.25-2.76.47.47,0,0,0-.25-.36.45.45,0,0,0-.25-.07.48.48,0,0,0-.2,0c-5.69,2.38-11.21,4.89-16.4,7.44a17.37,17.37,0,0,0-7.3,5.37,18.84,18.84,0,0,0-2.15,6.27c-.68,3.08-1.38,6.25-3.73,8.63a22.65,22.65,0,0,1-7.2,4,36.34,36.34,0,0,0-19.25,33.1c0,.74,0,1.43,0,2.13l0,1.68a87.88,87.88,0,0,0,8.7,13,18.16,18.16,0,0,1,3.37,6.73.52.52,0,0,0,.46.38h0a.51.51,0,0,0,.47-.32,21.9,21.9,0,0,1,1.78-3.47,11.47,11.47,0,0,1,8-5.15c.3,0,.6,0,.89,0a6.51,6.51,0,0,1,4.71,1.9c1.73,1.71,2.36,4.22,2.91,6.43.73,2.89,1.26,4.67,3,5.12a2.15,2.15,0,0,0,.62.08c2.31,0,4.14-3.36,5.64-6.66a26.2,26.2,0,0,1,20.56-15.81c.53,0,1.08-.07,1.63-.07a18.66,18.66,0,0,1,18.31,15.51,1.23,1.23,0,0,1,0,.27,41.89,41.89,0,0,1-3,14.36,13.77,13.77,0,0,0,1.24,12.39c1.93,2.29,5.21,3.19,8.68,4.15,1.19.33,2.38.65,3.52,1a14,14,0,0,1,7.75,10.75.49.49,0,0,0,.24.37.48.48,0,0,0,.26.07.47.47,0,0,0,.17,0,64.1,64.1,0,0,1,21.57-3.76h1.25a1.41,1.41,0,0,1,0,2.81h-1.14A61.65,61.65,0,0,0,190,175.7a46.85,46.85,0,0,0-19.86,14.79c-.63.82-1.22,1.7-1.79,2.59a39.47,39.47,0,0,0-3.93,8.61.51.51,0,0,0,.48.67.5.5,0,0,0,.31-.1,22.77,22.77,0,0,1,12.69-4.56,21,21,0,0,1,17.56,9.58,28.32,28.32,0,0,0,3.23,4.95,12.26,12.26,0,0,0,5.63,2.87,39.67,39.67,0,0,0,20.67.06,13.55,13.55,0,0,1,5.39-1.11,13.77,13.77,0,0,1,3.67.5,1.78,1.78,0,0,1,.29.12,11.75,11.75,0,0,1,3.79,3.26c1.08,1.22,2.77,2.81,4.41,4.35a.75.75,0,0,0,.48.2.32.32,0,0,0,.14,0c.19-.08.39-.19.39-.39a61.39,61.39,0,0,1,6.92-27.5,1.42,1.42,0,0,1,1.25-.75,1.17,1.17,0,0,1,.46.08,1.42,1.42,0,0,1,.92,1.59,61.13,61.13,0,0,0,5,38.19,135.47,135.47,0,0,0,7.42,12.71l1.54,2.49a.5.5,0,0,0,.43.24h.08a.5.5,0,0,0,.41-.38c.53-2,1.22-4,1.89-5.93,1.77-5.1,3.45-9.91,2.31-14.44A17.6,17.6,0,0,0,269.54,221.42Z"/></g></g></svg>