<svg xmlns="http://www.w3.org/2000/svg" viewBox="0 0 313.52 319.18"><defs><style>.cls-1{fill:#656565;}</style></defs><g id="Layer_2" data-name="Layer 2"><g id="Layer_1-2" data-name="Layer 1"><path class="cls-1" d="M59.13,267.13A92.25,92.25,0,0,1,49,215.58a1.18,1.18,0,0,1,1-1.05,40.15,40.15,0,0,0,10.15-3.09l.34-.18,0,0a1.17,1.17,0,0,1,1.74,1.29c-4,15.25-4.25,33-.88,53.86A1.18,1.18,0,0,1,59.13,267.13Z"/><path class="cls-1" d="M92.42,248.78a1.19,1.19,0,0,1-2.23-.26,85.79,85.79,0,0,1-.64-32.88s0-.08,0-.11a232,232,0,0,1,8.37-39.63,1.19,1.19,0,0,1,.36-.57,62.76,62.76,0,0,1,10.9-7.64l.16-.07a18.75,18.75,0,0,1,3-.92,1.18,1.18,0,0,1,1.43,1.24A227.79,227.79,0,0,1,92.42,248.78Z"/><path class="cls-1" d="M306.16,104.25c-.81-2.85-1.72-5.78-2.74-8.86L303.3,95a298.91,298.91,0,0,0-33.18-66.81c-.08-.12-.16-.24-.23-.37a44,44,0,0,0-17.07-17.18,8,8,0,0,0-1.23-.56,35.68,35.68,0,0,0-31.14,3.54,58.54,58.54,0,0,0-24,25.75A109.38,109.38,0,0,0,191.92,51a72.43,72.43,0,0,1-4.84,11.87c-.1.18-.19.36-.28.55A12.81,12.81,0,0,1,177,70.92a5.52,5.52,0,0,1-.81.06,5.29,5.29,0,0,1-2.37-.56,16.89,16.89,0,0,1-8.36-9.85c-.09-.28-.19-.54-.3-.8A173.57,173.57,0,0,1,159.1,43c-2.87-8.83-6.12-18.85-11.53-27.65L147.4,15A28.75,28.75,0,0,0,127.65.19a6.28,6.28,0,0,0-.87-.12A14.13,14.13,0,0,0,125.32,0a18.71,18.71,0,0,0-13.06,5.54,5.26,5.26,0,0,1-3.69,1.53A4.91,4.91,0,0,1,107.9,7a24.49,24.49,0,0,0-3.08-.19,24.9,24.9,0,0,0-11.9,3.05A27.59,27.59,0,0,0,78.7,33.52a7.83,7.83,0,0,0,.24,1.92,5.22,5.22,0,0,1-1,4.58,8.93,8.93,0,0,0-1.22,2A8.36,8.36,0,0,0,76,47.51a8.45,8.45,0,0,0,3,4.82c.14.11.27.24.4.36,2.72,2.7,6.71,4.25,11.88,4.61,2.59.18,5.21.27,7.78.27h2c1.2,0,2.39-.06,3.57-.16l.45,0A5.25,5.25,0,0,1,110.33,63c-.07.91-.15,1.81-.26,2.74A20.56,20.56,0,0,1,101.71,80a3.36,3.36,0,0,1-.51.32,18.54,18.54,0,0,1-9.35,2.08A87.75,87.75,0,0,1,78,80.76,106,106,0,0,0,60.87,78.9a45.25,45.25,0,0,0-7.15.53l-.29,0A48.8,48.8,0,0,0,23.21,98.74a75.19,75.19,0,0,0-8.85,15.18c-.07.18-.29.79-.34.91a125.47,125.47,0,0,0-4.94,13.75,206.28,206.28,0,0,0-8.5,76l0,.43c.43,3.37,1.17,7.7,3.09,11.2a5.55,5.55,0,0,1,.55,1.54,216.94,216.94,0,0,0,21.33,60.85,8.49,8.49,0,0,0,7.52,4.54,9,9,0,0,0,2.08-.26,8.41,8.41,0,0,0,6-5.56,5.24,5.24,0,0,1,4.43-3.57l.54,0a5.25,5.25,0,0,1,4.53,2.61,104.19,104.19,0,0,0,12.19,16.87A8.49,8.49,0,0,0,69.12,296a7.85,7.85,0,0,0,3.57-.8,7.49,7.49,0,0,0,2-1.26,7.81,7.81,0,0,0,2-2.68s.12-.26.14-.29a8.44,8.44,0,0,0,.71-4.4,7.82,7.82,0,0,0-.2-1.16c-1.53-6-2.8-11.85-3.8-17.36a5.26,5.26,0,0,1,3.09-5.74,5.34,5.34,0,0,1,2.06-.42A5.22,5.22,0,0,1,82.93,264a9.62,9.62,0,0,0,5.88,3.71,11.09,11.09,0,0,0,1.63.14h.38a8.47,8.47,0,0,0,7.5-4.5,240.87,240.87,0,0,0,25.41-77.94,5.27,5.27,0,0,1,2.55-3.78,5.21,5.21,0,0,1,2.63-.7,5.26,5.26,0,0,1,1.91.36l.35.13a9.44,9.44,0,0,0,2.79.47,8.46,8.46,0,0,0,3.32-.68,5.23,5.23,0,0,1,7,6.57c-1.08,3.05-2.3,6.09-3.61,9-.11.25-.21.51-.3.77A63,63,0,0,0,139,231.89a8.47,8.47,0,0,0,3.69,5.18,5.24,5.24,0,0,1,2.32,5.39c-.55,2.88-1.17,5.76-1.83,8.56a5,5,0,0,1-.26.83,8.26,8.26,0,0,0-.65,2.63,6.31,6.31,0,0,1-.15.85c-.67,2.63-1.38,5.2-2.12,7.66-.06.22-.12.44-.17.69a9.25,9.25,0,0,1-.25.94,5.23,5.23,0,0,1-3.82,3.48l-1.63.34a38.81,38.81,0,0,0-6.17,1.66l-.64.28A33.45,33.45,0,0,0,110.88,288c0,.1-.08.2-.13.3a83.61,83.61,0,0,0-6.21,18.4c-1.45,7.19,3.14,10.42,4.59,11.24a9.47,9.47,0,0,0,4.7,1.25,10.59,10.59,0,0,0,8.09-3.9l2.73-3.06a5.26,5.26,0,0,1,3.72-1.74h.18a5.22,5.22,0,0,1,3.66,1.49,9.73,9.73,0,0,0,5.78,2.76,11.9,11.9,0,0,0,1.2.07c2.53,0,6.18-.94,9.16-5.41a56,56,0,0,0,5.45-10.62l.44-1.16c.23-.61.53-1.39.83-2.13a5.22,5.22,0,0,1,4.81-3.27,14.38,14.38,0,0,0,3-.35,5.26,5.26,0,0,1,4.84,1.37,9.55,9.55,0,0,0,3.34,2.13,6.86,6.86,0,0,0,.94.29,10.25,10.25,0,0,0,5.89-.29,20.62,20.62,0,0,0,13.05-12.93,5.23,5.23,0,0,1,4.94-3.52,6.09,6.09,0,0,1,.85.07,10.53,10.53,0,0,0,5.38-.52c1.56-.59,6.67-3.11,6.67-10.72a39.69,39.69,0,0,0-.51-6.16,5.25,5.25,0,0,1,2.27-5.19,9,9,0,0,0,1.92-1.71,11.91,11.91,0,0,0,2.53-8.9,14.89,14.89,0,0,0-4.67-9,5.24,5.24,0,0,1,2.33-8.88,11.27,11.27,0,0,0,5.91-3.74,14.74,14.74,0,0,0,3-6.66l0-.35a67.28,67.28,0,0,0,.58-8.77,5.23,5.23,0,0,1,4.13-5.12,6,6,0,0,1,1.1-.11,5.23,5.23,0,0,1,4.77,3.08c2.44,5.41,3.79,10.68,3.81,14.86a5.53,5.53,0,0,1,0,.71,8.39,8.39,0,0,0,2.93,7.53,8.54,8.54,0,0,0,3.34,1.73,5.21,5.21,0,0,1,3.34,2.69,8.46,8.46,0,0,0,7.56,4.63,8.47,8.47,0,0,0,4.36-1.19,5.09,5.09,0,0,1,.91-.44,53.13,53.13,0,0,0,25.29-19.41,111.13,111.13,0,0,0,11.17-18,5.24,5.24,0,0,1,4.68-2.9,6.47,6.47,0,0,1,.76.05l.54.06c.19,0,.41,0,.6,0a8.53,8.53,0,0,0,8.32-6.74A172.38,172.38,0,0,0,306.16,104.25Zm-3.41,84.06a1.32,1.32,0,0,1-1.28,1,1.34,1.34,0,0,1-1.31-1.24A54.79,54.79,0,0,0,296.94,172a104.9,104.9,0,0,1-19.11,41.13,45.37,45.37,0,0,1-23.5,17.35l-.25.26a1.35,1.35,0,0,1-1.85,0,1.32,1.32,0,0,1,0-1.85c14.66-14.47,23.09-36.83,23.77-63a46.09,46.09,0,0,0-4.25-22.45,1.33,1.33,0,0,1,.32-1.54,22.61,22.61,0,0,0-10.87-3.11,43,43,0,0,1,6.46,28,96,96,0,0,1-22.27,56.82,1.33,1.33,0,0,1-1.84.16,1.23,1.23,0,0,1-.36-1.39c.47-9.62-4.5-22.27-13.31-34A77.87,77.87,0,0,1,214.3,199h0a60.24,60.24,0,0,1,.21,17.17,7.59,7.59,0,0,1-1.54,3.41,3.9,3.9,0,0,1-4.18,1.21,7.25,7.25,0,0,1-1.87-1.29,7.83,7.83,0,0,0-6.51-.84h0c-3.78,9.54-4.55,16.12-2.17,18.55a55.86,55.86,0,0,0,6.36,4.1,8.14,8.14,0,0,1,3.24,5.29,4.65,4.65,0,0,1-1,3.55,1.36,1.36,0,0,1-1,.48c-3.19-.1-6.57,1.22-6.75,3.62a7.65,7.65,0,0,0,.67,2.91,33.22,33.22,0,0,1,1.81,10.61c0,2.11-.68,3.44-2,3.94a3.34,3.34,0,0,1-2.27,0c-2.18-.7-3.38-2.7-4.44-4.47-.91-1.51-1.77-2.93-3.07-3.35a2.73,2.73,0,0,0-2.22.33,6.19,6.19,0,0,0-2.64,4,20.92,20.92,0,0,0-.12,4.7,24.65,24.65,0,0,1-.08,4.84,13.52,13.52,0,0,1-9.25,10.77,3.12,3.12,0,0,1-1.78.08c-1.33-.5-1.9-1.78-1.66-3.53.51-4.93,1-9.92,1.55-14.93a43.42,43.42,0,0,1,1.79-9.82,49.78,49.78,0,0,1,5.73-10.49,229.79,229.79,0,0,0,16-30.29c-1.72.46-3.29.84-4.75,1.13a3.81,3.81,0,0,1-2.51-.35,3.53,3.53,0,0,1-1.44-3.21,25.18,25.18,0,0,1,2.58-6.85,5.9,5.9,0,0,0,0-3.15.39.39,0,0,1-.08.1,1.27,1.27,0,0,1-.87.49h0a1.34,1.34,0,0,1-1.43-1.16c0-.34-.08-.67-.13-1l0-.17a68.43,68.43,0,0,0-5.6-19.1,59.65,59.65,0,0,0-15.1,40,1.34,1.34,0,0,1-.51,1,1.3,1.3,0,0,1-1.17.2,20.23,20.23,0,0,0-8.83-.57,218.44,218.44,0,0,1-5,28.15L164,274.53c1.33,2.28,2.63,4.91,1.34,7.43a6.57,6.57,0,0,1-5.69,3.05,27.93,27.93,0,0,0-5.08.28c-3.72.95-5.5,5.66-7.07,9.82l-.42,1.1a48.39,48.39,0,0,1-4.74,9.22c-.4.6-1.57,2.39-3.48,2.16s-2.88-2-2.73-4.72.31-5.6.49-8.4a7.29,7.29,0,0,0-.29-3.2,1.44,1.44,0,0,0-1.55-.92,3,3,0,0,0-1.07.92l-17.16,19.22a3.74,3.74,0,0,1-2.72,1.49,2.32,2.32,0,0,1-1.15-.3c-1.62-.92-1.23-2.84-1.09-3.57A75.43,75.43,0,0,1,117.44,291a26.12,26.12,0,0,1,13-14.14,31.39,31.39,0,0,1,5.12-1.36c2.7-.56,5.24-1.08,7.15-2.65a15.18,15.18,0,0,0,4.14-7.73c.92-3.08,1.79-6.27,2.6-9.54a1.29,1.29,0,0,1,.33-1.34,216.6,216.6,0,0,0,4.73-26.56,19.64,19.64,0,0,0-6.46,3.29,1.33,1.33,0,0,1-1.23.2,1.3,1.3,0,0,1-.85-.93,55.93,55.93,0,0,1,1.21-30.43,133.11,133.11,0,0,0,7.61-22.05,16.14,16.14,0,0,0-7.55-17.37,37.91,37.91,0,0,1-12.55,14.09,1.33,1.33,0,0,1-1.16.15,1.29,1.29,0,0,1-.81-.83,13.16,13.16,0,0,0-7.41-7.8,20.24,20.24,0,0,0-6.71-1.68A231.88,231.88,0,0,1,92,260a1.32,1.32,0,0,1-1.15.69l-.18,0a1.59,1.59,0,0,1-.53,0,2.71,2.71,0,0,1-1.89-1.85A90.15,90.15,0,0,1,85,214.91a236.43,236.43,0,0,1,7.48-36.72,62.63,62.63,0,0,0-6.24,7.64A98.51,98.51,0,0,1,71,201.37c-9.63,21.49-9.84,49.55-.64,85.78l.05.19,0,.07a1.21,1.21,0,0,1-.12.58l-.28.46a.83.83,0,0,1-.32.17.67.67,0,0,1-.24.12l-.33,0a1.27,1.27,0,0,1-.94-.43A96.14,96.14,0,0,1,44.6,213.1h-.07c-1.37.08-2.83.14-4.46.17-7.89,12.53-7,30.4-6.16,47.69.22,4.54.45,9.21.51,13.67a1.3,1.3,0,0,1-1,1.29l-.33,0a1.3,1.3,0,0,1-1.15-.7,210.17,210.17,0,0,1-21.08-61.22c-1.48-1.68-2.48-4.84-3.12-9.92A199.36,199.36,0,0,1,16,130.68a123.59,123.59,0,0,1,5-13.68v0l.07-.23A67.94,67.94,0,0,1,29,103,41.55,41.55,0,0,1,54.8,86.54c7.27-1.13,14.79.11,22,1.32,10.4,1.72,20.22,3.35,28.54-1.69A27.72,27.72,0,0,0,117.21,66.6a85.05,85.05,0,0,0-.33-21.31,15,15,0,0,1-6.35,3.77,34.26,34.26,0,0,1-10,1.31c-2.77,0-5.81,0-8.7-.25-2.48-.17-6-.69-7.87-3.16a1.34,1.34,0,0,1-.87-1,2.11,2.11,0,0,1,.83-1.75,1.18,1.18,0,0,1,1.08,0l9.38-2a28.81,28.81,0,0,0,11.32-4.08,9,9,0,0,0,4-8.28,19.09,19.09,0,0,0-21.51,4.5l-.24.18a1.22,1.22,0,0,1-.71.23H87l-.26-.13a.9.9,0,0,1-.45-.23l-.17-.24A1.44,1.44,0,0,1,86,34a1.09,1.09,0,0,1-.12-.3l0-.21a20.33,20.33,0,0,1,10.5-17.34,17.66,17.66,0,0,1,18,.67,8.62,8.62,0,0,1,1.54-4.48,11.71,11.71,0,0,1,10.23-5.14,21.53,21.53,0,0,1,15.08,11.49c5.08,8.12,8.11,17.46,11,26.49a182.64,182.64,0,0,0,6.34,17.48,24,24,0,0,0,15.46,15.57,20.18,20.18,0,0,0,19.28-11.8,78.49,78.49,0,0,0,5.38-13.1,102.94,102.94,0,0,1,4.2-10.88,51.29,51.29,0,0,1,21.35-22.73,28.32,28.32,0,0,1,24.92-2.86,36.84,36.84,0,0,1,14.65,14.87,291.25,291.25,0,0,1,32.67,65.63l.05.16v0c1,2.88,1.86,5.79,2.68,8.64A165.55,165.55,0,0,1,302.75,188.31Z"/><path class="cls-1" d="M26.63,252.66A205.16,205.16,0,0,1,16.35,218a1.17,1.17,0,0,1,.63-1.29,19,19,0,0,0,2.86-1.79l.34-.25c.2-.15.62-.45.9-.63,2.39.33,4.17.55,5.89.71s3.35.31,5.09.41a1.18,1.18,0,0,1,1,1.64c-4.31,10.43-4.63,22.84-4.19,35.4A1.18,1.18,0,0,1,26.63,252.66Z"/><path class="cls-1" d="M246.49,211.09c-2.37-9.33-7.48-17.84-11.4-23.42a1.16,1.16,0,0,1,.13-1.5,69.18,69.18,0,0,0,4.63-5.15l0,0a55.05,55.05,0,0,0,11.92-25.72l.05-.53a20.63,20.63,0,0,1,3.92-11.91,1.31,1.31,0,0,1,.22-.25l.45-.35a1.17,1.17,0,0,1,1.68.38,38.53,38.53,0,0,1,5,23.76.62.62,0,0,1,0,.13,91.81,91.81,0,0,1-14.43,44.93A1.18,1.18,0,0,1,246.49,211.09Z"/><path class="cls-1" d="M294.13,98.58a12,12,0,0,0-9.63-2.73,36.14,36.14,0,0,0-5.85,1.88A43.61,43.61,0,0,1,273,99.62a11.81,11.81,0,0,1-12.42-3.41,14.43,14.43,0,0,1-2-5.35,16.3,16.3,0,0,0-1.19-3.75c-2.62-5-10-5.13-15.45-3.74a49.92,49.92,0,0,0-19.46,9.92,18,18,0,0,1-11.43,6,1.5,1.5,0,0,1-.47,0,57.64,57.64,0,0,1-8.82-3,18.5,18.5,0,0,0-15.15,6.84,22,22,0,0,1-17,8.09h-.48a1.28,1.28,0,0,1-.33-.06,17,17,0,0,1-10.55-8.87c-.87-1.5-1.68-3.19-2.4-4.69a46,46,0,0,0-3.69-6.67,8.7,8.7,0,0,0-7.24-4.35c-.34,0-.86.16-1.39.28a7.06,7.06,0,0,1-4.25,0c-3.49-1.42-3.15-5.87-2.92-8.82l0-.23a17.82,17.82,0,0,0-3.93-12.44,16.63,16.63,0,0,1-3.29-4.69c-1.26-3.57.43-6.94,1.91-9.91l.11-.22.62-1.25a26.71,26.71,0,0,0,1.83-17.47,2.49,2.49,0,0,0-1-1.78,1.06,1.06,0,0,0-.38.07,4.19,4.19,0,0,0-1.91,2l-.18.37c-.84,1.69-2,4-4.39,4.27s-4.53-2.13-5-4.52a14.92,14.92,0,0,1-.16-2.86,13,13,0,0,0-.15-2.54,9,9,0,0,0-4.73-5.66l-.15-.1a.88.88,0,0,1-.17-.12,15,15,0,0,0-17.77-2.5,17.65,17.65,0,0,0-8.72,11.85,21.62,21.62,0,0,1,21.15-3,1.13,1.13,0,0,1,.39-.17,1.3,1.3,0,0,1,1.57,1,1.31,1.31,0,0,1,.57,1.75,1.49,1.49,0,0,1-.28.38,11.56,11.56,0,0,1-5.24,10.2,31.29,31.29,0,0,1-12.29,4.45l-7.47,1.56A12.37,12.37,0,0,0,92,47.51c2.83.2,5.7.29,8.52.24a31.39,31.39,0,0,0,9.3-1.2,12.56,12.56,0,0,0,6.74-4.85,1.25,1.25,0,0,1,1.8-.77h0l.21.11a1.28,1.28,0,0,1,.52,1.32,88.18,88.18,0,0,1,.71,24.54,30.38,30.38,0,0,1-13,21.47c-9.22,5.58-20,3.8-30.39,2.07-7.06-1.17-14.37-2.38-21.16-1.32a38.93,38.93,0,0,0-24.14,15.42,65.31,65.31,0,0,0-7.5,12.72c2.83,7.07,1.13,15.46-.37,22.86-1.46,7.21-2.72,13.43,1,15.23,13,6.28,27.22,1.17,39.76-3.34,4.34-1.56,8.43-3,12.31-4a30.28,30.28,0,0,1,12.17-1.07,13.41,13.41,0,0,1,10.28,6.88c.15.31.26.56.37.81a3.45,3.45,0,0,0,1.15,1.77,3.37,3.37,0,0,0,1.89.18A75.2,75.2,0,0,0,121.81,152a91.9,91.9,0,0,1,24.42-8.21,22.3,22.3,0,0,1,16,4.89,12.64,12.64,0,0,1,4.64,8.76,32.76,32.76,0,0,0,.17,4.13,9.5,9.5,0,0,0,7.38,5.9c5.17,1.35,10.77,1,16.19.69,7.66-.46,15.57-.94,22.12,3.23a32,32,0,0,0,6.57,4.17c2.06.7,5,.75,8.08.79,2.93.05,6.52.1,9.4,1.07a50,50,0,0,0,10.45-22.84,25.13,25.13,0,0,1,5.21-15,12.26,12.26,0,0,1,7.76-3.35h.46A25.05,25.05,0,0,1,274,140.08a4.35,4.35,0,0,1,.52.3,60.26,60.26,0,0,1,24.27,29.23,58.29,58.29,0,0,1,2.91,9.85,163.33,163.33,0,0,0-5-72.51C295.94,104.2,295.07,101.39,294.13,98.58Z"/><path class="cls-1" d="M271.74,213.52a1.18,1.18,0,0,1-1.95-1.3c6.62-13.17,10.39-29,10.83-46.11a50.27,50.27,0,0,0-.91-13.17,1.17,1.17,0,0,1,2-1.06,56.46,56.46,0,0,1,11.23,15.79,1.21,1.21,0,0,1,.09.75,100.28,100.28,0,0,1-18.87,42A37.89,37.89,0,0,1,271.74,213.52Z"/></g></g></svg>