<svg xmlns="http://www.w3.org/2000/svg" viewBox="0 0 214.79 326.79"><defs><style>.cls-1{fill:#656565;}</style></defs><g id="Layer_2" data-name="Layer 2"><g id="Layer_1-2" data-name="Layer 1"><path class="cls-1" d="M180.46,173.12a69.58,69.58,0,0,0-37.4,7.4c-4.43,2-8.92,3.57-13.26,5.11s-8.7,3.1-12.9,5A184.37,184.37,0,0,1,82.82,204a20.26,20.26,0,0,1-5.73.83,20.6,20.6,0,0,1-5.56-.76,2,2,0,0,1-.6-.29,23.41,23.41,0,0,1-8.6-26.68s.42-1.9.42-1.9a47,47,0,0,1,22.76-26.41c13.22-8.12,28.2-13.28,42.69-18.28,7.46-2.57,15.17-5.24,22.54-8.27,18.34-7.55,41.88-21.35,49.89-44.24a61.86,61.86,0,0,0,3-24.46,42.72,42.72,0,0,0-5.61-20.28,40.91,40.91,0,0,0-16-13.79,71.86,71.86,0,0,0-72.32,2.81l3.65.78a3.44,3.44,0,0,1,2,.27,7.07,7.07,0,0,1,2.87,2.87,79,79,0,0,1,34.58-6A31.43,31.43,0,0,1,180.59,42.3a48.64,48.64,0,0,1-.12,37.83,72.5,72.5,0,0,1-31.54,33.53,172,172,0,0,1-43.11,15.88A387,387,0,0,0,62.29,142,60.7,60.7,0,0,0,43.8,152.31a59.59,59.59,0,0,0-9.44,11c-8.13,12.24-17.5,26.35-18.16,41.51-.62,14.09,10.39,26.77,22.64,32.24a39.11,39.11,0,0,0,27,1.77,43,43,0,0,0,4.84-1.76,152.71,152.71,0,0,0,31.76-23.39,72.21,72.21,0,0,1,17-10.34,1.8,1.8,0,0,1,.8-.67l1.08-.31h.11a34.58,34.58,0,0,1,24.91-1,35.37,35.37,0,0,1,20.23,36.9,32.89,32.89,0,0,1-8.27,19.44l-.15.14A41.69,41.69,0,0,1,135,268.37c-.6.12-1.35.24-2.09.35l-.3,0a51,51,0,0,1-7,.5,50.14,50.14,0,0,1-5.46-.41,2.06,2.06,0,0,1-.46.15l-.3,0c-.31-.05-.59-.19-.89-.25l-.3,0c-.07,0-.11-.09-.18-.11a22.35,22.35,0,0,1-8.26-3.53,27.71,27.71,0,0,1-9.55-15.82,33.72,33.72,0,0,1,1.21-22,21.67,21.67,0,0,1,18.06-13.1,21.17,21.17,0,0,1,19.85,14.33,28.85,28.85,0,0,1-3.45,24.35,57.86,57.86,0,0,1-11.17,12.45,47.22,47.22,0,0,0,7.32-.4,30.42,30.42,0,0,0,17.76-21,36.11,36.11,0,0,0-3.93-29.74,20.57,20.57,0,0,0-23-8.07s-.06,0-.1,0,0,0-.07,0a68.79,68.79,0,0,0-17.65,10.54A156.17,156.17,0,0,1,73.53,240c0,.08.08.13.08.2,0,.56,0,1.1,0,1.65a51.65,51.65,0,0,0,5.24,23.74,41.36,41.36,0,0,0,18.7,18.53A52.72,52.72,0,0,0,124,288a131.85,131.85,0,0,0,15.46-3.22c.09-.05.14-.17.24-.21A104.68,104.68,0,0,0,169,271c8-5.51,13.75-13.77,18.74-21.76A112,112,0,0,0,200,222.5a45.51,45.51,0,0,0-5.16-37.64A36.52,36.52,0,0,0,180.46,173.12Z"/><path class="cls-1" d="M118.33,292.27a56.8,56.8,0,0,1-10.89-1.08c-.27.65-.6,1.35-1,2.13-2.06,4.22-5.2,10.6-1.52,19.61a4,4,0,0,0,2.79,2.72,69.18,69.18,0,0,0,28.22-26c-3.8.88-7.62,1.73-11.47,2.28A60,60,0,0,1,118.33,292.27Z"/><path class="cls-1" d="M80.42,20.39a22.61,22.61,0,0,0-4.19.39c-4.35,1.26-7.3,5.36-10.41,9.69A52,52,0,0,1,60,37.6a46.52,46.52,0,0,1-8.43,6.1,49.57,49.57,0,0,0-6.92,4.8c-2.15,1.9-4.24,5.58-2.56,7.52a7,7,0,0,0,6.49.84L62,54.37c.13-.23.3-.38.44-.6a11.44,11.44,0,0,1,1-1.43,8.54,8.54,0,0,1,.71-.64,8.82,8.82,0,0,1,1.25-1c.25-.15.52-.25.78-.38a11.3,11.3,0,0,1,1.45-.59c.27-.08.56-.11.85-.17a11.57,11.57,0,0,1,1.58-.25c.3,0,.62,0,.93,0,.54,0,1.08,0,1.63,0,.38,0,.77.09,1.15.13s1,.1,1.5.19,1.16.21,1.74.33c.31.06.62.11.92.18.91.19,1.82.4,2.71.61,1.77.42,3.56.84,5.3,1.13a20.4,20.4,0,0,0,5,.32A15.74,15.74,0,0,0,104.8,41.08a16.75,16.75,0,0,0,1.14-7.7,21,21,0,0,1,.17-3.79,1.42,1.42,0,0,1,0-.2A6.89,6.89,0,0,1,107.77,26a.83.83,0,0,1,.08-.12L87,21.36A23.13,23.13,0,0,0,80.42,20.39ZM95,29.4c.18-.4.35-.81.49-1.22a1.48,1.48,0,0,1,1.87-.9,1.46,1.46,0,0,1,.89,1.86,14.71,14.71,0,0,1-.59,1.48,16.54,16.54,0,0,1-5.25,6.47,6.27,6.27,0,0,1-.9,5.76,5.66,5.66,0,0,1-5,3.15,4.89,4.89,0,0,1-3.27-2.21A7.54,7.54,0,0,1,82,40.34a16.53,16.53,0,0,1-6.47-1.5,1.46,1.46,0,0,1-.72-1.94,1.48,1.48,0,0,1,1.94-.72A13.77,13.77,0,0,0,95,29.4Z"/><path class="cls-1" d="M132.57,250.67a24.9,24.9,0,0,0,3-21,17.15,17.15,0,0,0-16-11.6A17.7,17.7,0,0,0,105,228.75a29.94,29.94,0,0,0-1,19.55A23.89,23.89,0,0,0,112.14,262a18.25,18.25,0,0,0,6.62,2.86h0c.17,0,.35,0,.52,0a54,54,0,0,0,13.27-14.18Z"/><path class="cls-1" d="M203.81,178.56A47.68,47.68,0,0,0,184.61,163l-.24-.1a71.45,71.45,0,0,0-42.93-4.16c-14,2.75-26.81,8.41-39.23,13.89l-.22.1c-5.61,2.48-11.41,5-17.2,7.25l-.36.14A22.39,22.39,0,0,1,75.49,182,3.11,3.11,0,0,1,73,180.86a3.48,3.48,0,0,1-.06-1.21,16,16,0,0,1,1.16-2.84,7.18,7.18,0,0,0,.65-1.78,35.89,35.89,0,0,1,15.89-16.67,3.62,3.62,0,0,0,.43-.24c12.28-7.53,26.65-12.49,40.55-17.29l.23-.08c7.57-2.61,15.4-5.32,23-8.45,29.26-12.05,48.65-29.6,56.09-50.85a72.58,72.58,0,0,0,3.6-28.5,53.86,53.86,0,0,0-7.12-25.3l-.27-.43A51.7,51.7,0,0,0,187,9.68,83.72,83.72,0,0,0,148.16,0a82.83,82.83,0,0,0-45.42,13.56l-13-2.79A33.36,33.36,0,0,0,74,10.1a5.45,5.45,0,0,0-.58.14C65.22,12.58,60.63,19,56.94,24.08a43.79,43.79,0,0,1-4.55,5.68,37.07,37.07,0,0,1-6.53,4.62,59.64,59.64,0,0,0-8.44,5.93c-5.32,4.71-7.6,11-6.51,16.61a9,9,0,0,0-5.81-2.11,9.48,9.48,0,0,0-1.69.15l-.26.06a9,9,0,0,0-6.79,10.69c1.19,5.36,6.13,23,19.71,24.53a15,15,0,0,0,1.81.1c3.57,0,8.28-1,13.9-6.54A9,9,0,0,0,56.3,85a8.88,8.88,0,0,0,5.36-1.79A58,58,0,0,1,87.37,72.39a54.92,54.92,0,0,0,24.15-6.19,9.76,9.76,0,0,0,1.55-1l.22-.18a38.58,38.58,0,0,0,13-25.79,27.25,27.25,0,0,0,.55-4.63A68.13,68.13,0,0,1,148.54,31c1.19,0,2.39,0,3.57.1a20.57,20.57,0,0,1,18,14.43c1.49,8.86-6.55,18.18-14,23.52-13.26,9.56-30,14.71-46.19,19.7-4.46,1.37-8.48,2.62-12.54,4A341.66,341.66,0,0,0,46.81,113.9a93,93,0,0,0-34.7,27,6.51,6.51,0,0,0-.43.6A74.27,74.27,0,0,0,.12,185.84a86.58,86.58,0,0,0,6.05,30.09c.1.23.2.45.31.67A56.18,56.18,0,0,0,34,246.9l.26.13a50.21,50.21,0,0,0,28.82,3.66A62.58,62.58,0,0,0,69,270.41,52.45,52.45,0,0,0,92.8,293.93l.3.13,1,.41a30.74,30.74,0,0,0,.57,22.18,14.88,14.88,0,0,0,11.81,10l.11,0a9.77,9.77,0,0,0,1.32.1h.1a34.63,34.63,0,0,0,13.73-3c22.57-7.37,42.63-23.69,63.12-51.38a5.25,5.25,0,0,0,.33-.49c2-2.65,3.68-5.06,5.28-7.37a126.06,126.06,0,0,0,20.06-38.9A56.52,56.52,0,0,0,204,178.9C204,178.79,203.89,178.67,203.81,178.56Zm0,45.1a118.83,118.83,0,0,1-19,36.81c-1.78,2.56-3.66,5.18-5.58,7.78,0,0,0,.06,0,.08-19.67,26.57-38.73,42.13-60,49a27.36,27.36,0,0,1-11.25,2.49h0l-.31,0a7.93,7.93,0,0,1-6.35-5.5c-4.27-10.49-.53-18.11,1.71-22.67.22-.45.44-.91.63-1.35a57,57,0,0,1-7.69-2.6,45.33,45.33,0,0,1-20.58-20.36,55.43,55.43,0,0,1-5.65-25.51v-.13c-.89.32-1.83.73-2.68,1a43.17,43.17,0,0,1-29.8-2,49.13,49.13,0,0,1-24.38-27.18c0-.06-.09-.09-.11-.15a79.32,79.32,0,0,1-5.55-27.75,67.37,67.37,0,0,1,10.47-40.32,86,86,0,0,1,32.25-25A336.68,336.68,0,0,1,99.62,99.3c4.11-1.35,8.25-2.63,12.42-3.91,16.74-5.16,34.05-10.5,48.23-20.72C169.9,67.75,179.34,56,177,43.81c0,0,0,0,0-.06s0,0-.05-.08A27.56,27.56,0,0,0,152.6,24.06a74.76,74.76,0,0,0-33,5.78,21.2,21.2,0,0,1-.2,8.33,31.8,31.8,0,0,1-10.75,21.57,2.33,2.33,0,0,1-.4.27A47.76,47.76,0,0,1,86.79,65.4,65.1,65.1,0,0,0,57.47,77.64a2,2,0,0,1-2.41-3.11L70.93,61.72a4.41,4.41,0,0,0,2.22-3.13,1.8,1.8,0,0,0-.41-.48c-.95-.79-3.42-1.08-5.71-.67l-3.29.61-.05,0-4.53.83a1.84,1.84,0,0,1,0,.9C51.53,75.62,44.58,83.34,37.88,83.34a8.21,8.21,0,0,1-1,0C27.47,82.21,23.6,66,23.2,64.2A2,2,0,0,1,27,63.34c.94,4.24,4.64,15.4,10.29,16,2.88.44,8.67-2,17.41-19.67l-5.14.94a10,10,0,0,1-3.4.59,11,11,0,0,1-6.79-2.39c-3.6-4.09-1.25-9.84,2.65-13.3a52.39,52.39,0,0,1,7.46-5.2,42.69,42.69,0,0,0,7.75-5.57,47.94,47.94,0,0,0,5.35-6.61C66,23.49,69.48,18.64,75.31,17A26.23,26.23,0,0,1,88,17.56L104.2,21a75.93,75.93,0,0,1,79.68-5.11,44.79,44.79,0,0,1,17.51,15.21A46.77,46.77,0,0,1,207.6,53.3a65.88,65.88,0,0,1-3.25,25.93c-6.73,19.23-24.75,35.33-52.12,46.6-7.46,3.07-15.23,5.75-22.75,8.35-14.29,4.93-29.06,10-42,18a43,43,0,0,0-19.48,21c0,.16,0,.32,0,.47A22.81,22.81,0,0,0,66.16,178h0a10.28,10.28,0,0,0,.5,5.76,10,10,0,0,0,8.8,5.24,29.67,29.67,0,0,0,11.83-2.55c6-2.31,12-4.94,17.76-7.49,12.07-5.32,24.56-10.84,37.8-13.44a64.62,64.62,0,0,1,38.89,3.79,0,0,0,0,0,0,0h0a40.54,40.54,0,0,1,16.37,13.29A49.48,49.48,0,0,1,203.8,223.66Z"/></g></g></svg>